<?xml version="1.0" encoding="utf-8"?>
<!-- Generator: Adobe Illustrator 24.2.3, SVG Export Plug-In . SVG Version: 6.00 Build 0)  -->
<svg version="1.1" id="Layer_1" xmlns="http://www.w3.org/2000/svg" xmlns:xlink="http://www.w3.org/1999/xlink" x="0px" y="0px"
	 viewBox="0 0 680 497" style="enable-background:new 0 0 680 497;" xml:space="preserve">
<style type="text/css">
	.st0{fill:#FFFFFF;}
	.st1{fill:#FDFDFD;}
	.st2{fill:#EDA100;}
	.st3{fill:#FBB200;}
	.st4{fill:#FFCB1E;}
	.st5{fill:url(#SVGID_1_);}
	.st6{opacity:0.51;}
	.st7{clip-path:url(#SVGID_3_);}
	.st8{fill:#602D0C;}
	.st9{fill:url(#SVGID_4_);}
	.st10{fill:url(#SVGID_5_);}
	.st11{clip-path:url(#SVGID_7_);}
	.st12{fill:url(#SVGID_8_);}
	.st13{fill:#C32200;}
	.st14{fill:#BBC300;}
	.st15{fill:#62A900;}
	.st16{fill:#B49000;}
	.st17{fill:#7D6100;}
	.st18{opacity:0.23;fill:#B49000;}
	.st19{fill:#D4AA00;}
	.st20{fill:#FFE3A3;}
	.st21{fill:url(#SVGID_9_);}
</style>
<rect class="st0" width="680" height="497"/>
<polygon class="st1" points="109.5,321.6 375.2,288.2 573.4,321.6 337.3,380.2 "/>
<g>
	<g>
		<path class="st2" d="M425.1,297.6c0,0,125.9,7.2,127,12.5c1.1,5.3,0.4,12.5,0.4,12.5l-131.7-10.5
			C420.8,312.1,411.2,299,425.1,297.6z"/>
		<path class="st3" d="M431.3,306.4c0,0,40.8-8.6,79.9-15.4c39.1-6.8,59.1,2.4,59.1,2.4l5.7,9.6c0,0-15.2-1.2-46.5-0.1
			c-31.2,1.1-96.8,16.9-96.8,16.9l-4.7-6.1L431.3,306.4z"/>
		<path class="st4" d="M442.5,294.4c0,0,39-6,55.8-14.5c37.7-19.1,47.8-13.3,47.8-13.3s-9.5,8.4-19.2,13.2
			c-9.7,4.8-82.2,26.2-82.2,26.2L442.5,294.4z"/>
		<path class="st4" d="M421.7,288c0,0,54.7-18.9,74.3-22.3c19.5-3.4,25-1.8,25-1.8s-10.3,12-21,12.4c-10.7,0.4-75.9,27.7-75.9,27.7
			S412.2,288,421.7,288z"/>
		<path class="st3" d="M446.2,273.8c0,0,94.9,4.5,104.2,14l-6.9,6.5l-8.9,0.3c0,0-80.2-11.1-98.4-11.1
			C436.1,283.6,431.8,272.6,446.2,273.8z"/>
		<path class="st2" d="M431.3,306.4c0,0,79.1,14.1,76.7,19.6c-2.5,5.5-6,8.3-6,8.3L412,317.8C412,317.8,415,300.7,431.3,306.4z"/>
	</g>
	<g>
		<path class="st2" d="M381.4,261c0,0,125.5,11.6,126.4,17c0.9,5.4,0,12.5,0,12.5l-131.3-15.2C376.5,275.4,367.5,261.9,381.4,261z"
			/>
		<path class="st3" d="M387.3,270c0,0,41.1-7.1,80.4-12.5c39.3-5.4,58.9,4.5,58.9,4.5l5.4,9.8c0,0-15.2-1.8-46.4-1.8
			c-31.3,0-97.3,13.4-97.3,13.4l-4.5-6.3L387.3,270z"/>
		<path class="st4" d="M398.9,258.4c0,0,38.1-7.5,56.3-12.5c35.7-9.8,43.8-20.5,43.8-20.5l4.5,8.9c0,0-9.8,8-19.6,12.5
			c-9.8,4.5-83.1,23.2-83.1,23.2L398.9,258.4z"/>
		<path class="st4" d="M378.3,251.2c0,0,55.4-17,75-19.6c19.6-2.7,25-0.9,25-0.9s-10.7,11.6-21.4,11.6c-10.7,0-76.8,25-76.8,25
			S368.8,250.9,378.3,251.2z"/>
		<path class="st4" d="M403.3,237.9c0,0,94.7,7.9,103.6,17.8l-7.1,6.3h-8.9c0,0-79.8-14-97.9-14.6
			C392.9,247.4,388.9,236.3,403.3,237.9z"/>
		<path class="st2" d="M387.3,270c0,0,78.6,17,75.9,22.3c-2.7,5.4-6.3,8-6.3,8l-89.3-19.6C367.6,280.7,371.2,263.7,387.3,270z"/>
	</g>
</g>
<g>
	<g>
		
			<linearGradient id="SVGID_1_" gradientUnits="userSpaceOnUse" x1="2370.3242" y1="310.0088" x2="2370.3242" y2="259.1634" gradientTransform="matrix(-1 0 0 1 2671.0881 0)">
			<stop  offset="0" style="stop-color:#773709"/>
			<stop  offset="0.5003" style="stop-color:#A14C03"/>
			<stop  offset="1" style="stop-color:#773709"/>
		</linearGradient>
		<path class="st5" d="M183.6,300.3c77.7,13.1,155.8,12.9,234.4,0c3.3-0.5,5.8-3.5,5.8-6.8v-18.9c0-9.1-7.9-16.3-17-15.3
			c-72.9,7.8-143.7,8.4-211.7,0.3c-9.2-1.1-17.2,6-17.2,15.3v18.6C177.8,296.8,180.2,299.7,183.6,300.3z"/>
		<g class="st6">
			<defs>
				<path id="SVGID_2_" class="st6" d="M183.6,300.3c77.7,13.1,155.8,12.9,234.4,0c3.3-0.5,5.8-3.5,5.8-6.8v-18.9
					c0-9.1-7.9-16.3-17-15.3c-72.9,7.8-143.7,8.4-211.7,0.3c-9.2-1.1-17.2,6-17.2,15.3v18.6C177.8,296.8,180.2,299.7,183.6,300.3z"
					/>
			</defs>
			<clipPath id="SVGID_3_">
				<use xlink:href="#SVGID_2_"  style="overflow:visible;"/>
			</clipPath>
			<g class="st7">
				<path class="st8" d="M432.1,270.7c0,0-6.3,20.5-16.1,18.2c-9.8-2.4-19.3-7.1-19.9-4.8c-0.6,2.4-7.1,4.2-11,2.7
					c-3.9-1.5-5.1-6.5-8-6.8c-3-0.3-7.7,3-7.7,3s-11-10.1-7.4-13.1c3.6-3,31.3-9.2,45.5-7.4C421.6,264.2,432.1,270.7,432.1,270.7z"
					/>
				<path class="st8" d="M362.2,312.6c0,0-12.2-14.9-18.8-14.9c-6.5,0-7.4,5.1-12.5,4.8c-5.1-0.3-10.1-5.7-14-1.5
					c-3.9,4.2-9.8-0.6-12.2,3.9c-2.4,4.5-14.3,6.5-19.1,11.9c-4.8,5.4-2.4,5.7-2.4,5.7S361.6,322.1,362.2,312.6z"/>
				<path class="st8" d="M265.4,310.7c0,0-5.4-12.7-10.7-9.4c-5.4,3.3-10.7,1.3-18.8,2c-8,0.7-12.1-6-18.8-5.4
					c-6.7,0.7-12.7-2.7-15.4-2.7c-2.7,0-11.4-2-16.7-2c-5.4,0-10.7,5.4-10.7,5.4l19.6,11.1L265.4,310.7z"/>
				<path class="st8" d="M329.7,271.8c0,0,5.4,5.4-4.7,5.4c-10,0-18.8,6-28.8,6c-10,0-10.7-3.3-28.8-3.3s-38.2,0-40.2,0
					c-2,0-12.1-3.3-24.1-3.3c-12.1,0-29.5-10-29.5-10L329.7,271.8z"/>
			</g>
		</g>
	</g>
	<linearGradient id="SVGID_4_" gradientUnits="userSpaceOnUse" x1="300.7266" y1="331.0319" x2="300.7266" y2="291.2924">
		<stop  offset="5.084330e-03" style="stop-color:#D15A00"/>
		<stop  offset="1" style="stop-color:#DA9029"/>
	</linearGradient>
	<path class="st9" d="M400.3,325.8c-66,7.1-132.4,7-199.1,0c-13.4-1.4-23.4-10.1-23.4-20.4v-14c85.1,7.8,167.4,8.4,245.9,0v14.1
		C423.7,315.6,413.7,324.3,400.3,325.8z"/>
	<path class="st3" d="M422.2,263.2L422.2,263.2c0-6.7-54.4-12.1-121.5-12.1c-67.1,0-119.1,5.8-121.5,12.1c-1.2,3.1,17.1,5.1,30.4,8
		c6.3,1.4,17.4,27.2,23.4,27.8c6.2,0.6,37.1-24.7,67.7-23.7c35.8,1.2,68-1.5,90.2-4c16.4-0.3,29.8,5.4,32,12.1
		C425.6,291.2,427.3,268.4,422.2,263.2z"/>
	<g>
		<linearGradient id="SVGID_5_" gradientUnits="userSpaceOnUse" x1="300.7266" y1="270.7531" x2="300.7266" y2="219.9076">
			<stop  offset="0" style="stop-color:#773709"/>
			<stop  offset="0.5003" style="stop-color:#A14C03"/>
			<stop  offset="1" style="stop-color:#773709"/>
		</linearGradient>
		<path class="st10" d="M417.9,261c-77.7,13.1-155.8,12.9-234.4,0c-3.3-0.5-5.8-3.5-5.8-6.8v-18.9c0-9.1,7.9-16.3,17-15.3
			c72.9,7.8,143.7,8.4,211.7,0.3c9.2-1.1,17.2,6,17.2,15.3v18.6C423.7,257.6,421.3,260.5,417.9,261z"/>
		<g class="st6">
			<defs>
				<path id="SVGID_6_" class="st6" d="M417.9,261c-77.7,13.1-155.8,12.9-234.4,0c-3.3-0.5-5.8-3.5-5.8-6.8v-18.9
					c0-9.1,7.9-16.3,17-15.3c72.9,7.8,143.7,8.4,211.7,0.3c9.2-1.1,17.2,6,17.2,15.3v18.6C423.7,257.6,421.3,260.5,417.9,261z"/>
			</defs>
			<clipPath id="SVGID_7_">
				<use xlink:href="#SVGID_6_"  style="overflow:visible;"/>
			</clipPath>
			<g class="st11">
				<path class="st8" d="M169.4,231.5c0,0,6.3,20.5,16.1,18.2c9.8-2.4,19.3-7.1,19.9-4.8c0.6,2.4,7.1,4.2,11,2.7
					c3.9-1.5,5.1-6.5,8-6.8c3-0.3,7.7,3,7.7,3s11-10.1,7.4-13.1c-3.6-3-31.3-9.2-45.5-7.4C179.8,224.9,169.4,231.5,169.4,231.5z"/>
				<path class="st8" d="M239.3,273.4c0,0,12.2-14.9,18.8-14.9c6.5,0,7.4,5.1,12.5,4.8c5.1-0.3,10.1-5.7,14-1.5
					c3.9,4.2,9.8-0.6,12.2,3.9c2.4,4.5,14.3,6.5,19.1,11.9c4.8,5.4,2.4,5.7,2.4,5.7S239.9,282.9,239.3,273.4z"/>
				<path class="st8" d="M336.1,271.4c0,0,5.4-12.7,10.7-9.4c5.4,3.3,10.7,1.3,18.8,2s12.1-6,18.8-5.4c6.7,0.7,12.7-2.7,15.4-2.7
					c2.7,0,11.4-2,16.7-2s10.7,5.4,10.7,5.4l-19.6,11.1L336.1,271.4z"/>
				<path class="st8" d="M271.8,232.6c0,0-5.4,5.4,4.7,5.4c10,0,18.8,6,28.8,6c10,0,10.7-3.3,28.8-3.3s38.2,0,40.2,0
					c2,0,12.1-3.3,24.1-3.3c12.1,0,29.5-10,29.5-10L271.8,232.6z"/>
			</g>
		</g>
	</g>
	<path class="st3" d="M179,222.2L179,222.2c0-6.7,54.4-12.1,121.5-12.1c67.1,0,119.1,5.8,121.5,12.1c1.2,3.1-17.1,5.1-30.4,8
		c-6.3,1.4-5.2,26.5-23.4,27.8c-6.2,0.4-37.1-24.7-67.7-23.7c-35.8,1.2-68-1.5-90.2-4c-16.4-0.3-29.8,5.4-32,12.1
		C175.6,250.1,173.9,227.4,179,222.2z"/>
	<linearGradient id="SVGID_8_" gradientUnits="userSpaceOnUse" x1="208.4698" y1="222.8089" x2="423.3461" y2="222.8089">
		<stop  offset="5.084330e-03" style="stop-color:#D15A00"/>
		<stop  offset="1" style="stop-color:#C32200"/>
	</linearGradient>
	<path class="st12" d="M423.3,226.6c-71.2,3.6-142.8,3.6-214.9,0v-8.2c0-1.3,3.8-2.3,8.2-2.1c68.5,2.2,134.8,2.4,198.3,0
		c4.4-0.2,8.3,0.8,8.3,2.1V226.6z"/>
	<path class="st13" d="M396.6,216.3c-71,6.3-142.6,9-214.7,8.2l-0.3-8.2c0-1.3,3.7-2.4,8.1-2.4c68.5-0.4,134.7-2.7,198.2-7.5
		c4.4-0.3,8.4,0.5,8.4,1.8L396.6,216.3z"/>
	<path class="st14" d="M200.1,185c-10.7,5.4-17.9,1.8-23.2,11.6c-5.4,9.8-9.8,14.3-2.7,20.5c7.1,6.3,21.4-0.9,28.6,6.3
		c7.1,7.1,41.1-5.4,56.3-5.4c15.2,0,21.8,9,41.7,1.8c19.9-7.2,27.9-7.2,32.4-1.8c4.5,5.4,12.5,1.8,19.6,1.8
		c7.1,0,24.4-13.5,27.7-8.9c3.3,4.6,5.5,5.4,16.1,9.8c10.6,4.5,23.2,14.2,26.7,2.2c3.6-12,8-14.7,4.5-28.1
		c-3.6-13.4-1.8-8.9-3.6-13.4c-1.8-4.5-17.9,4.5-30.4,4.5s-42-11.6-49.1-11.6c-7.1,0-22.3,11.6-38.4,8.9c-16.1-2.7-52.7-8-72.3-6.3
		C214.4,178.8,200.1,185,200.1,185z"/>
	<g>
		<path class="st15" d="M197.4,194c-15.6-0.9-11.6,1.3-11.6,7.6c0,6.3-10.7,6.3-5.4,7.6c5.4,1.3,9.8-7.1,17-5.4
			c7.1,1.8,14.3-8.5,16.1-8.5C215.3,195.3,197.4,194,197.4,194z"/>
		<path class="st15" d="M213,216.3c0,0-3.1-11.6,9.4-8c12.5,3.6,15.6-6.3,23.2-8.9c7.6-2.7,13.4,4.5,13.4,4.5s-9.4,1.8-9.4,6.3
			c0,4.5-9.2,10.6-17.9,6.7c-9.8-4.5-18.8,7.6-18.8,7.6V216.3z"/>
		<path class="st15" d="M268.9,198.1c0,0,11,7.7,10.1,15.2c-0.9,7.4,15.5,4.8,13.4-1.2c-2.1-6,9.5-19.9,9.5-19.9L268,196
			L268.9,198.1z"/>
		<path class="st15" d="M331.4,186.8c0,0-9.5,19.1-3,19.3c6.5,0.3,10.4,8.3,14.6,6.3c4.2-2.1,3.6-5.4,9.5-4.8
			c6,0.6,15.8-1.8,15.8-4.2C368.3,201.1,331.4,186.8,331.4,186.8z"/>
		<path class="st15" d="M380.5,210.9L368,190.4l17.9,8.9c0,0,1.2,9.8,8,9.8s4.5,9.2,14.6,9.2s14.9,8.3,14.9,8.3l-8.3,6.6
			C415,233.2,382,221.9,380.5,210.9z"/>
	</g>
	<path class="st3" d="M338.7,231.2c0,0,2.7-12.7,26.8-10c24.1,2.7,36.4,6.7,36.4,6.7L338.7,231.2z"/>
	<g>
		<ellipse class="st16" cx="342.8" cy="184.2" rx="86.4" ry="13.6"/>
		<g>
			<g>
				<path class="st17" d="M381.4,180.4c0,1.3-1.3,2.3-3,2.3c-1.7,0-3-1-3-2.3c0-1.3,1.3-2.3,3-2.3C380,178,381.4,179.1,381.4,180.4z
					"/>
				<ellipse class="st18" cx="379.4" cy="179.6" rx="2" ry="1.6"/>
			</g>
			<g>
				<path class="st17" d="M357.8,177.2c0,1.3-1.3,2.3-3,2.3c-1.7,0-3-1-3-2.3c0-1.3,1.3-2.3,3-2.3
					C356.5,174.9,357.8,176,357.8,177.2z"/>
				<ellipse class="st18" cx="355.8" cy="176.5" rx="2" ry="1.6"/>
			</g>
			<g>
				<path class="st17" d="M397.8,189.8c0,1.3-1.3,2.3-3,2.3c-1.7,0-3-1-3-2.3c0-1.3,1.3-2.3,3-2.3
					C396.4,187.5,397.8,188.6,397.8,189.8z"/>
				<path class="st18" d="M397.8,189.1c0,0.9-0.9,1.6-2,1.6s-2-0.7-2-1.6c0-0.9,0.9-1.6,2-1.6S397.8,188.2,397.8,189.1z"/>
			</g>
			<g>
				<path class="st17" d="M411,180.3c0,1.3-1.3,2.3-3,2.3c-1.7,0-3-1-3-2.3c0-1.3,1.3-2.3,3-2.3C409.7,178,411,179,411,180.3z"/>
				<ellipse class="st18" cx="409" cy="179.5" rx="2" ry="1.6"/>
			</g>
			<g>
				<path class="st17" d="M363.7,192.2c0,1.3-1.3,2.3-3,2.3c-1.7,0-3-1-3-2.3c0-1.3,1.3-2.3,3-2.3
					C362.4,189.9,363.7,190.9,363.7,192.2z"/>
				<path class="st18" d="M363.7,191.4c0,0.9-0.9,1.6-2,1.6c-1.1,0-2-0.7-2-1.6c0-0.9,0.9-1.6,2-1.6
					C362.8,189.9,363.7,190.6,363.7,191.4z"/>
			</g>
			<g>
				<path class="st17" d="M341.1,190.7c0,1.3-1.3,2.3-3,2.3c-1.7,0-3-1-3-2.3c0-1.3,1.3-2.3,3-2.3
					C339.7,188.4,341.1,189.4,341.1,190.7z"/>
				<path class="st18" d="M341.1,189.9c0,0.9-0.9,1.6-2,1.6c-1.1,0-2-0.7-2-1.6c0-0.9,0.9-1.6,2-1.6
					C340.2,188.4,341.1,189.1,341.1,189.9z"/>
			</g>
			<g>
				<path class="st17" d="M330.4,180.3c0,1.3-1.3,2.3-3,2.3c-1.7,0-3-1-3-2.3c0-1.3,1.3-2.3,3-2.3C329,178,330.4,179,330.4,180.3z"
					/>
				<ellipse class="st18" cx="328.4" cy="179.5" rx="2" ry="1.6"/>
			</g>
			<g>
				<path class="st17" d="M313.1,191.2c0,1.3-1.3,2.3-3,2.3c-1.7,0-3-1-3-2.3c0-1.3,1.3-2.3,3-2.3
					C311.8,188.8,313.1,189.9,313.1,191.2z"/>
				<ellipse class="st18" cx="311.1" cy="190.4" rx="2" ry="1.6"/>
			</g>
			<g>
				<path class="st17" d="M300.6,180.6c0,1.3-1.3,2.3-3,2.3c-1.7,0-3-1-3-2.3c0-1.3,1.3-2.3,3-2.3
					C299.2,178.3,300.6,179.3,300.6,180.6z"/>
				<path class="st18" d="M300.6,179.8c0,0.9-0.9,1.6-2,1.6c-1.1,0-2-0.7-2-1.6c0-0.9,0.9-1.6,2-1.6
					C299.7,178.3,300.6,179,300.6,179.8z"/>
			</g>
			<g>
				<path class="st17" d="M272.8,183.1c0,1.3-1.3,2.3-3,2.3c-1.7,0-3-1-3-2.3c0-1.3,1.3-2.3,3-2.3
					C271.4,180.7,272.8,181.8,272.8,183.1z"/>
				<ellipse class="st18" cx="270.8" cy="182.3" rx="2" ry="1.6"/>
			</g>
			<g>
				<path class="st17" d="M286.9,190.4c0,1.3-1.3,2.3-3,2.3c-1.7,0-3-1-3-2.3c0-1.3,1.3-2.3,3-2.3
					C285.6,188.1,286.9,189.1,286.9,190.4z"/>
				<ellipse class="st18" cx="284.9" cy="189.6" rx="2" ry="1.6"/>
			</g>
		</g>
		<path class="st19" d="M424.6,180c0,4-36,3.3-80.7,3.3c-44.6,0-80.2-0.5-80.2-4.5s34.3-16.3,79-16.3
			C387.3,162.4,424.6,176,424.6,180z"/>
	</g>
	<g>
		
			<ellipse transform="matrix(0.9949 -0.101 0.101 0.9949 -17.6039 27.0821)" class="st16" cx="258.6" cy="187.4" rx="86.4" ry="13.6"/>
		<g>
			<g>
				<ellipse transform="matrix(0.9949 -0.101 0.101 0.9949 -16.6726 30.5647)" class="st17" cx="293.5" cy="180" rx="3" ry="2.3"/>
				<path class="st18" d="M296.5,178.9c0.1,0.9-0.7,1.6-1.8,1.7s-2.1-0.5-2.1-1.3c-0.1-0.9,0.7-1.6,1.8-1.7
					C295.4,177.4,296.4,178,296.5,178.9z"/>
			</g>
			<g>
				<path class="st17" d="M272.8,178.9c0.1,1.3-1.1,2.5-2.8,2.6c-1.7,0.2-3.1-0.7-3.2-2c-0.1-1.3,1.1-2.5,2.8-2.6
					C271.3,176.7,272.7,177.6,272.8,178.9z"/>
				<path class="st18" d="M272.8,178.1c0.1,0.9-0.7,1.6-1.8,1.7c-1.1,0.1-2.1-0.5-2.1-1.3c-0.1-0.9,0.7-1.6,1.8-1.7
					C271.7,176.7,272.7,177.3,272.8,178.1z"/>
			</g>
			<g>
				<path class="st17" d="M313.8,187.4c0.1,1.3-1.1,2.5-2.8,2.6c-1.7,0.2-3.1-0.7-3.2-2c-0.1-1.3,1.1-2.5,2.8-2.6
					C312.3,185.2,313.7,186.1,313.8,187.4z"/>
				<path class="st18" d="M313.8,186.6c0.1,0.9-0.7,1.6-1.8,1.7c-1.1,0.1-2.1-0.5-2.1-1.3c-0.1-0.9,0.7-1.6,1.8-1.7
					C312.7,185.2,313.7,185.8,313.8,186.6z"/>
			</g>
			<g>
				
					<ellipse transform="matrix(0.9949 -0.101 0.101 0.9949 -16.2131 33.5283)" class="st17" cx="323.1" cy="176.9" rx="3" ry="2.3"/>
				<path class="st18" d="M326,175.8c0.1,0.9-0.7,1.6-1.8,1.7c-1.1,0.1-2.1-0.5-2.1-1.3c-0.1-0.9,0.7-1.6,1.8-1.7
					C324.9,174.4,325.9,175,326,175.8z"/>
			</g>
			<g>
				<path class="st17" d="M280.2,193.2c0.1,1.3-1.1,2.5-2.8,2.6c-1.7,0.2-3.1-0.7-3.2-2c-0.1-1.3,1.1-2.5,2.8-2.6
					C278.6,191,280,191.9,280.2,193.2z"/>
				<path class="st18" d="M280.1,192.4c0.1,0.9-0.7,1.6-1.8,1.7c-1.1,0.1-2.1-0.5-2.1-1.3c-0.1-0.9,0.7-1.6,1.8-1.7
					S280,191.6,280.1,192.4z"/>
			</g>
			<g>
				
					<ellipse transform="matrix(0.9949 -0.101 0.101 0.9949 -18.3248 26.6974)" class="st17" cx="254.5" cy="194.3" rx="3" ry="2.3"/>
				<path class="st18" d="M257.4,193.2c0.1,0.9-0.7,1.6-1.8,1.7c-1.1,0.1-2.1-0.5-2.1-1.3c-0.1-0.9,0.7-1.6,1.8-1.7
					C256.4,191.8,257.4,192.4,257.4,193.2z"/>
			</g>
			<g>
				<path class="st17" d="M245.8,184.8c0.1,1.3-1.1,2.5-2.8,2.6c-1.7,0.2-3.1-0.7-3.2-2c-0.1-1.3,1.1-2.5,2.8-2.6
					C244.2,182.6,245.7,183.5,245.8,184.8z"/>
				<path class="st18" d="M245.7,184c0.1,0.9-0.7,1.6-1.8,1.7c-1.1,0.1-2.1-0.5-2.1-1.3c-0.1-0.9,0.7-1.6,1.8-1.7
					C244.7,182.5,245.6,183.1,245.7,184z"/>
			</g>
			<g>
				<path class="st17" d="M229.7,197.3c0.1,1.3-1.1,2.5-2.8,2.6c-1.7,0.2-3.1-0.7-3.2-2c-0.1-1.3,1.1-2.5,2.8-2.6
					C228.1,195.1,229.6,196,229.7,197.3z"/>
				<path class="st18" d="M229.6,196.5c0.1,0.9-0.7,1.6-1.8,1.7c-1.1,0.1-2.1-0.5-2.1-1.3c-0.1-0.9,0.7-1.6,1.8-1.7
					C228.6,195.1,229.6,195.7,229.6,196.5z"/>
			</g>
			<g>
				
					<ellipse transform="matrix(0.9949 -0.101 0.101 0.9949 -17.9387 22.5054)" class="st17" cx="213.2" cy="188.4" rx="3" ry="2.3"/>
				<path class="st18" d="M216.1,187.3c0.1,0.9-0.7,1.6-1.8,1.7c-1.1,0.1-2.1-0.5-2.1-1.3c-0.1-0.9,0.7-1.6,1.8-1.7
					C215.1,185.8,216.1,186.4,216.1,187.3z"/>
			</g>
			<g>
				<path class="st17" d="M188.8,193.3c0.1,1.3-1.1,2.5-2.8,2.6c-1.7,0.2-3.1-0.7-3.2-2c-0.1-1.3,1.1-2.5,2.8-2.6
					C187.2,191.1,188.6,192,188.8,193.3z"/>
				<path class="st18" d="M188.7,192.5c0.1,0.9-0.7,1.6-1.8,1.7c-1.1,0.1-2.1-0.5-2.1-1.3c-0.1-0.9,0.7-1.6,1.8-1.7
					C187.7,191.1,188.6,191.7,188.7,192.5z"/>
			</g>
			<g>
				<path class="st17" d="M203.6,199.2c0.1,1.3-1.1,2.5-2.8,2.6c-1.7,0.2-3.1-0.7-3.2-2c-0.1-1.3,1.1-2.5,2.8-2.6
					C202,197,203.5,197.9,203.6,199.2z"/>
				<path class="st18" d="M203.5,198.4c0.1,0.9-0.7,1.6-1.8,1.7c-1.1,0.1-2.1-0.5-2.1-1.3c-0.1-0.9,0.7-1.6,1.8-1.7
					C202.5,197,203.4,197.6,203.5,198.4z"/>
			</g>
		</g>
		<path class="st19" d="M339.5,174.9c0.4,4-35.5,6.9-79.9,11.4c-44.4,4.5-79.9,7.6-80.3,3.7c-0.4-4,32.5-19.7,76.9-24.2
			C300.6,161.2,339.1,170.9,339.5,174.9z"/>
	</g>
	<g>
		<path class="st20" d="M187,183.2c-14.7,7.7-13.4,20.1,0.4,16.5c13.9-3.6,36.7-10.1,47.1-8.5c10.4,1.5,1.4,14.5,24.8,5.6
			c23.3-8.9,55.8-19.2,33.3-20.8C270.1,174.4,187,183.2,187,183.2z"/>
		<path class="st0" d="M264.4,188.6c0,0-22.1,2.5-19.2,6.7S265,190.4,264.4,188.6z"/>
		<path class="st0" d="M190.7,190.5c0,0-11-3.3-9.8,1.1c1.2,4.4,7.4,3.5,10.4,2c3-1.5,3.8-2.9,8.4-1.9c0.8,0.2,1.5,0.2,2.2,0.3
			c3.3,0,5.4-1.7,5.4-1.7s-6.5-3.1-11.7-1.4c-5.3,1.7,0.5,0.9-5.3,1.7"/>
	</g>
	<g>
		<path class="st20" d="M333.7,166.5c0,0,1.7,12.6,15.2,14s20.6-6.2,34.5,2.8c13.8,8.9,19.2,3.6,22.3,0c3.1-3.6,22.6,4.1,18.8-13.6
			C416.4,132.8,333.7,166.5,333.7,166.5z"/>
		<path class="st0" d="M414.6,173c-8.6-4.7-20.5,1.3-18.8,7.1c1.8,5.8,6.3-3.1,12.9-3.6C415.5,176.1,419.6,175.6,414.6,173z"/>
		<path class="st0" d="M362,174.8c0,0-11.2,2.7-18.3-1.3C336.5,169.4,347.7,183.7,362,174.8z"/>
	</g>
	<path class="st0" d="M355.8,224.6c-3.6,0.6-17.6,5.4-12.5,8.9c5.1,3.6,7.7-0.9,11.3-1.8c3.6-0.9,4.8-5.7,7.1-5.7
		C364.1,226.1,364.4,223.1,355.8,224.6z"/>
	<path class="st0" d="M382.3,236.2c0,0-2.1,11-12.2,11c-10.1,0-6.8,11.3,1.2,6.3C379.3,248.4,387,235.9,382.3,236.2z"/>
	<path class="st0" d="M216.8,271.1c3.6,1.2,13.7,23.5,19.1,22.9c5.4-0.6,24.1-9.5,22-9.8c-2.1-0.3-16.1,6.8-19.1,4.8
		c-3-2.1-4.5-5.7-8-8C227.2,278.5,216.8,271.1,216.8,271.1z"/>
	<path class="st0" d="M411.4,268.1c0,0,12.2,4.8,12.2,7.4c0,2.7-14.3-5.1-16.1-5.1C405.8,270.5,406.4,267.5,411.4,268.1z"/>
	<path class="st0" d="M190.3,228.9c0,0-8,3.6-10.1,5.4c-2.1,1.8,0.6-6.3,4.2-6.3S192.1,226.2,190.3,228.9z"/>
	<path class="st0" d="M279.6,273.7c-5.5-1.2-7.1,0.6-5.7,1.5C275.4,276.1,286.7,275.2,279.6,273.7z"/>
	<g>
		
			<linearGradient id="SVGID_9_" gradientUnits="userSpaceOnUse" x1="275.7345" y1="17.2467" x2="275.7345" y2="84.2212" gradientTransform="matrix(0.9956 -9.410000e-02 9.410000e-02 0.9956 15.4498 121.6126)">
			<stop  offset="5.084330e-03" style="stop-color:#D15A00"/>
			<stop  offset="1" style="stop-color:#ECA42F"/>
		</linearGradient>
		<path class="st21" d="M412.6,163.3c4.1-0.8,6.5-5,5.1-8.9c-10.5-29.1-63.9-47.4-126-41.5c-62.2,5.9-111.3,33.8-116,64.4
			c-0.6,4.1,2.5,7.8,6.6,7.8C258.3,185.2,335.1,177.7,412.6,163.3z"/>
		<g>
			<path class="st3" d="M253.6,132.3c0.6,1.1,0,2.7-1.4,3.5c-1.4,0.8-3.1,0.6-3.8-0.5c-0.6-1.1,0-2.7,1.4-3.5
				C251.2,131,252.9,131.2,253.6,132.3z"/>
			<path class="st3" d="M343.2,114.6c0.6,1.1,0,2.7-1.4,3.5c-1.4,0.8-3.1,0.6-3.8-0.5c-0.6-1.1,0-2.7,1.4-3.5
				C340.9,113.3,342.5,113.5,343.2,114.6z"/>
			<path class="st3" d="M265.3,119.2c0.6,1.1,0,2.7-1.4,3.5c-1.4,0.8-3.1,0.6-3.8-0.5c-0.6-1.1,0-2.7,1.4-3.5
				C262.9,117.8,264.6,118,265.3,119.2z"/>
			<path class="st3" d="M371.4,129.8c-0.2,1.3-1.7,2.1-3.3,1.8c-1.6-0.3-2.8-1.5-2.6-2.8c0.2-1.3,1.7-2.1,3.3-1.8
				C370.4,127.3,371.6,128.5,371.4,129.8z"/>
			<path class="st3" d="M305.1,140.7c0.6,1.1,0,2.7-1.4,3.5c-1.4,0.8-3.1,0.6-3.8-0.5c-0.6-1.1,0-2.7,1.4-3.5
				C302.8,139.3,304.5,139.5,305.1,140.7z"/>
			<path class="st3" d="M322.9,120c-0.9,0.9-2.6,0.7-3.8-0.4c-1.2-1.2-1.4-2.9-0.5-3.8c0.9-0.9,2.6-0.7,3.8,0.4
				C323.5,117.3,323.8,119,322.9,120z"/>
			<path class="st3" d="M277.1,148.6c-0.1,1.3-1.5,2.3-3.1,2.2c-1.7-0.1-3-1.2-2.9-2.5c0.1-1.3,1.5-2.3,3.1-2.2
				C275.9,146.2,277.2,147.3,277.1,148.6z"/>
			<path class="st3" d="M297.7,116.6c-0.1,1.3-1.5,2.3-3.2,2.2c-1.7-0.1-2.9-1.2-2.9-2.5c0.1-1.3,1.5-2.3,3.2-2.2
				C296.5,114.2,297.8,115.3,297.7,116.6z"/>
			<path class="st3" d="M347,145.8c-0.1,1.3-1.5,2.3-3.2,2.2c-1.7-0.1-2.9-1.2-2.9-2.5c0.1-1.3,1.5-2.3,3.2-2.2
				C345.8,143.3,347,144.5,347,145.8z"/>
			<path class="st3" d="M222.4,136.6c0.2,1.3-1,2.5-2.6,2.8c-1.6,0.3-3.1-0.6-3.3-1.8c-0.2-1.3,1-2.5,2.6-2.8
				C220.7,134.5,222.2,135.3,222.4,136.6z"/>
			
				<ellipse transform="matrix(0.9872 -0.1594 0.1594 0.9872 -17.2451 39.9269)" class="st3" cx="240.3" cy="127.5" rx="3" ry="2.3"/>
			<path class="st3" d="M283.1,129.1c-0.4,1.2-2,1.9-3.6,1.4c-1.6-0.5-2.6-1.9-2.2-3.1c0.4-1.2,2-1.9,3.6-1.4
				C282.5,126.5,283.4,127.8,283.1,129.1z"/>
			<path class="st3" d="M231.4,154.8c-0.4,1.2-2,1.9-3.6,1.4c-1.6-0.5-2.6-1.9-2.2-3.1c0.4-1.2,2-1.9,3.6-1.4
				C230.8,152.1,231.8,153.5,231.4,154.8z"/>
			<path class="st3" d="M310,126.4c-0.4,1.2-2,1.9-3.6,1.4c-1.6-0.5-2.6-1.9-2.2-3.1c0.4-1.2,2-1.9,3.6-1.4
				C309.4,123.8,310.4,125.2,310,126.4z"/>
		</g>
	</g>
</g>
</svg>
