<?xml version="1.0" encoding="utf-8"?>
<!-- Generator: Adobe Illustrator 24.2.3, SVG Export Plug-In . SVG Version: 6.00 Build 0)  -->
<svg version="1.1" id="Layer_1" xmlns="http://www.w3.org/2000/svg" xmlns:xlink="http://www.w3.org/1999/xlink" x="0px" y="0px"
	 viewBox="0 0 4500 2500" style="enable-background:new 0 0 4500 2500;" xml:space="preserve">
<style type="text/css">
	.st0{fill:#FFF8F8;}
	.st1{fill:#F9BDBD;}
	.st2{fill:#6D89D0;}
	.st3{fill:#3A4ACE;}
	.st4{fill:#293EB7;}
	.st5{fill:#2E49D3;}
	.st6{fill:#D2E3FC;}
	.st7{fill:#C5DCF8;}
	.st8{fill:#D1E6FA;}
	.st9{fill:#FC9490;}
	.st10{fill:#932722;}
	.st11{fill:#163560;}
	.st12{fill:#2C3A64;}
	.st13{fill:#1C468A;}
	.st14{fill:#FF8585;}
	.st15{fill:#FFFFFF;}
	.st16{fill:#97BADD;}
	.st17{fill:#D9E9FE;}
	.st18{fill:#78ACEA;}
	.st19{fill:#AFCDFB;}
	.st20{opacity:0.4;fill:#5E92DD;enable-background:new    ;}
	.st21{fill:#95C0F4;}
	.st22{fill:#8CBAF1;}
	.st23{fill:#C0D8FB;}
	.st24{fill:#FFFBF8;}
	.st25{fill:#699DEE;}
	.st26{fill:#FB7369;}
	.st27{fill:#FFB176;}
	.st28{fill:#B25918;}
	.st29{fill:#F2564B;}
	.st30{fill:#2A4E96;}
	.st31{fill:#F48484;}
	.st32{fill:#FFE4CC;}
	.st33{fill:#F77548;}
	.st34{fill:#FF7D5A;}
	.st35{fill:#2E3552;}
</style>
<g id="Layer_1_1_">
	<g>
		<rect class="st0" width="4500" height="2500"/>
	</g>
</g>
<g id="Слой_1">
	<g>
		<g>
			<path class="st1" d="M322.9,2465.1c0,0-525.3-578.4-88.8-1204.6c387.3-555.6,838.8-517.6,1170.1-292.2
				c141.1,96,547.9,11.8,894.1-553.5c472.2-771,2108.9-303.4,1810.5,882.8c-144.4,574,439.5,594.9,142,1168.7L322.9,2465.1z"/>
			<g>
				<path class="st2" d="M2655.3,2166.2c0,0-100.1-118.5-6.2-193.8c0,0,68.6-42.2,124.5-38.7c0,0-79.2,134.9-53.6,148.3
					c25.6,13.4,77.6-156.8,77.6-156.8s156.1-15.4,206.3,9.1c0,0-133.4,110.9-105.3,117.5c28.1,6.6,172.2-102.2,172.2-102.2
					s145.2,25.1,137.5,115.1c-7.8,90-57.8,117.8-79.8,115.4c-22-2.4-150.7-52.3-153.5-34c-2.8,18.3,74.7,78.1,128.9,80.9
					c0,0-102.4,114.7-170.5,81.6c-68.1-33.1-73.9-85.6-116.3-105.2c-42.4-19.7-78.6-19.6-61.1,0.4c17.5,20.1,94.3,39.6,118.6,83.1
					c24.3,43.6,46,73-24.4,62.2s-184.9-63.1-189.9-123C2655.3,2166.2,2655.3,2166.2,2655.3,2166.2z"/>
				<g>
					<path class="st2" d="M3136.9,2067.1c0,0-394.5-15.4-481.6,99.1c0,0-19.3,58.6-78.6,112l-9.2,25.6c0,0,68.4-73.2,92.8-77.6
						C2660.3,2226.1,2622,2084.2,3136.9,2067.1z"/>
					<path class="st2" d="M2576.7,2278.1c0,0-84.7,63.6-90.6,177.2l15.4,1.4c0,0,27-117.5,75.9-163.4
						C2626.3,2247.4,2576.7,2278.1,2576.7,2278.1z"/>
				</g>
			</g>
			<g>
				<path class="st3" d="M1624.4,1197.9c0,0,153-87,81.6-205.2c0,0-57.1-72.5-118.4-91.2c0,0,32.6,176.1,0,180.3
					c-32.6,4.1-22.5-198.9-22.5-198.9s-161.2-78.7-224.5-72.5c0,0,100,172,67.3,167.8c-32.6-4.1-144.9-178.2-144.9-178.2
					s-165.3-31.1-191.8,68.4c-26.5,99.5,16.3,149.2,40.8,155.4c24.5,6.2,181.6,4.1,177.5,24.9c-4.1,20.7-110.2,53.9-169.4,35.2
					c0,0,65.3,163.7,151,155.4s112.2-62.2,165.3-66.3c53.1-4.1,91.8,10.4,65.3,24.9c-26.5,14.5-116.3,4.8-159.2,41.7
					c-42.9,37-77.5,59.8,2,76.4c79.6,16.6,222.4,6.2,251-55.9C1624.4,1197.9,1624.4,1197.9,1624.4,1197.9z"/>
				<g>
					<path class="st2" d="M1146.9,899.5c0,0,428.6,140.9,477.5,298.4c0,0-2,70.5,40.8,151.3v31.1c0,0-44.9-105.7-69.4-120.2
						C1595.8,1260.1,1691.7,1123.3,1146.9,899.5z"/>
					<path class="st2" d="M1665.2,1349.2c0,0,66.1,101.9,28.4,226l-17-4.6c0,0,16.5-136.6-18.1-205.4
						C1624,1296.4,1665.2,1349.2,1665.2,1349.2z"/>
				</g>
			</g>
			<g>
				<path class="st3" d="M2558.7,1892.3c0,0-209.8-119.3-111.9-281.2c0,0,78.3-99.4,162.2-125c0,0-44.8,241.5,0,247.1
					s30.8-272.7,30.8-272.7s221-108,307.7-99.4c0,0-137.1,235.8-92.3,230.1c44.8-5.7,198.6-244.3,198.6-244.3s226.6-42.6,263,93.7
					c36.4,136.4-22.4,204.5-56,213c-33.6,8.5-249,5.7-243.4,34.1c5.6,28.4,151.1,73.9,232.2,48.3c0,0-89.5,224.4-207,213
					c-117.5-11.4-153.9-85.2-226.6-90.9c-72.7-5.7-125.9,14.2-89.5,34.1s159.4,6.5,218.2,57.2c58.8,50.7,106.3,82-2.8,104.7
					c-109.1,22.7-304.9,8.5-344.1-76.7C2558.7,1892.3,2558.7,1892.3,2558.7,1892.3z"/>
				<g>
					<path class="st2" d="M3213.3,1483.2c0,0-587.5,193.2-654.6,409.1c0,0,2.8,96.6-56,207.4v42.6c0,0,61.5-144.9,95.1-164.8
						C2597.8,1977.5,2466.3,1790,3213.3,1483.2z"/>
					<path class="st2" d="M2502.7,2099.7c0,0-90.6,139.7-39,309.8l23.3-6.4c0,0-22.6-187.3,24.8-281.5
						C2559.3,2027.3,2502.7,2099.7,2502.7,2099.7z"/>
				</g>
			</g>
			<g>
				<path class="st4" d="M586,1307.4c0,0-36.5,30.9,3.7,70c0,0-34.6,12.3-45.8,3.9c0,0,2.4,4.2,4.4,6.1c0,0-35.4,3.3-50.6-7.2
					c-15.2-10.4-15.8-195.1,83.8-180c0,0,83.1-11,80.6,87.4s29,96.7,29,96.7s-8.5,4.9-12.8,5.1c0,0-6.3-2-7.7-5.4c0,0,1.5,5.4,3.2,7
					c0,0-33.8,5.2-51.5-6.9C604.6,1372,582.2,1327.9,586,1307.4z"/>
				<path class="st4" d="M580.7,1357.7c0,0-28.4-27.5-40.2-54.1c-8.4-19-48.9-96.1,26.8-104.1c0,0,54.1-2.6,77.4,6
					c18.5,6.9,47.3,24.5,37.5,95.5l-1.3,23.5L580.7,1357.7z"/>
				<path class="st5" d="M494.2,1905.4c-3.2-81-10.2-151.4-18.6-200.5c-13.3-78.3-25.3-123.4-25.5-123.8
					c-1.8-6.9-27.1-34.7-83.6-33.9c-56.4,0.9-51.1,37.4-51.1,37.4l0,0c0,1.2,0.2,2.4,0.4,3.2c0.6,1.9,52.3,192.6,50.1,438.7
					c0,3.5-0.4,9.4-0.2,13.4c0,0,130.7,3.4,130.8,0C501.2,2018.4,498.9,1958.8,494.2,1905.4z"/>
				<path class="st6" d="M510.6,2025.3c0,3.4-1.8,6.2-4,6.2h-0.1c-2.2-0.1-3.9-2.8-3.9-6.2h-112c0,3.4-1.8,6.2-4,6.2h-0.1
					c-2.2-0.1-4-2.9-3.9-6.4c0.6-70.5-3.3-136.3-9.3-194.4c-14.9-144.8-42.4-241.7-42.8-243c-0.2-0.9-0.4-2-0.4-3.3
					c0,0-5.3-36.5,51.1-37.4c56.4-0.9,81.8,27,83.6,33.9c0.1,0.4,6.9,25.9,15.9,71.7c3,15.2,6.2,32.6,9.6,52.1
					c8.4,49.1,15.3,119.6,18.6,200.5C513.5,1958.8,515.2,2003.8,510.6,2025.3z"/>
				<path class="st7" d="M374.3,2031.5h439.3c0,0-10.2-42-264.6-35.8C368.9,2000.2,374.3,2031.5,374.3,2031.5z"/>
				<g>
					<path class="st8" d="M338.6,2470.6c50.9-261.8,37.8-422.5,37.8-424.5c-0.1-4,7.2-7.7,11.1-7.8c4-0.1,21.6-1.2,23.6,2.3
						c2.7,4.5,12.9,202.5-63,430.1H338.6z"/>
				</g>
				<g>
					<path class="st8" d="M748.7,2470.6c-50.9-261.8-37.8-422.5-37.8-424.5c0.1-4-7.2-7.7-11.1-7.8c-4-0.1-21.6-1.2-23.6,2.3
						c-2.7,4.5-12.9,202.5,63,430.1H748.7z"/>
				</g>
				<g>
					<path class="st8" d="M830,2470.6c-50.9-261.8-37.8-422.5-37.8-424.5c0.1-4-7.2-7.7-11.1-7.8c-4-0.1-21.6-1.2-23.6,2.3
						c-2.7,4.5-12.9,202.5,63,430.1H830z"/>
				</g>
				<g>
					<path class="st8" d="M420.4,2470.6c50.9-261.8,37.8-422.5,37.8-424.5c-0.1-4,7.2-7.7,11.1-7.8c4-0.1,21.6-1.2,23.6,2.3
						c2.7,4.5,12.9,202.5-63,430.1H420.4z"/>
				</g>
				<path class="st5" d="M822.5,2044.9H366c-0.2,0-0.4-0.2-0.4-0.4v-23.5c0-0.2,0.2-0.4,0.4-0.4h456.5c0.2,0,0.4,0.2,0.4,0.4v23.5
					C822.9,2044.8,822.7,2044.9,822.5,2044.9z"/>
				<g>
					<path class="st9" d="M1046.3,2481.9c-16,0-49.1,4.2-63.7-13.7c-14.5-18-46-26.8-50-32.5c-2.2-3.1,0.7-16.9,3.8-28.9l0,0
						c7.8-10.9-4.8-25.9-4.8-25.9l42.1,2.9c0,0,20,27,34.8,48.7c5.6,8.2,22.5,20.6,32.7,24.3c13.2,4.8,26.2,7.7,31,12.5
						C1080.8,2477.7,1062.4,2481.9,1046.3,2481.9z"/>
					<path class="st10" d="M1046.3,2481.9c-16,0-49.1,4.2-63.7-13.7c-14.5-18-46-26.8-50-32.5c-2.2-3.1-2.3-15.6,3.8-28.9v0
						c0,0,26.5,11,41.4,32.1c15,21.1,54.8,30.3,63.2,18.1c0,0,0.1-0.1,0.1-0.1c13.2,4.8,26.2,7.7,31,12.5
						C1080.8,2477.7,1062.4,2481.9,1046.3,2481.9z"/>
					<polygon class="st10" points="932.7,2435.6 948.8,2470.6 959.6,2471.8 958,2440.7 					"/>
				</g>
				<path class="st11" d="M617.7,1816.4c0,0,234,73.6,284.3,116.1c50.4,42.5,85.4,464,85.4,464s-6,3.7-18.3,3.4
					c-11.4-0.3-35.4-10.3-35.4-10.3S830.9,2189.4,827.9,2142c-2.9-47.4,4.6-88.3-15.6-92.1c-20.2-3.8-277.3-5.2-306.7-78.7
					c-29.4-73.6,11-137.1,11-137.1L617.7,1816.4z"/>
				<g>
					<path class="st9" d="M992.1,2481.9c-16,0-49.1,4.2-63.7-13.7c-14.5-18-46-26.8-50-32.5c-2.2-3.1,0.7-16.9,3.8-28.9l0,0
						c7.8-10.9-4.8-25.9-4.8-25.9l42.1,2.9c0,0,20,27,34.8,48.7c5.6,8.2,22.5,20.6,32.7,24.3c13.2,4.8,26.2,7.7,31,12.5
						C1026.5,2477.7,1008.1,2481.9,992.1,2481.9z"/>
					<path class="st12" d="M992.1,2481.9c-16,0-49.1,4.2-63.7-13.7c-14.5-18-46-26.8-50-32.5c-2.2-3.1-2.3-15.6,3.8-28.9v0
						c0,0,26.5,11,41.4,32.1c15,21.1,54.8,30.3,63.2,18.1c0,0,0.1-0.1,0.1-0.1c13.2,4.8,26.2,7.7,31,12.5
						C1026.5,2477.7,1008.1,2481.9,992.1,2481.9z"/>
					<polygon class="st12" points="878.4,2435.6 894.6,2470.6 905.3,2471.8 903.7,2440.7 					"/>
				</g>
				<path class="st13" d="M556.5,1838.7c0,0,241,51.3,291.3,93.8c50.4,42.5,85.4,464,85.4,464s-6,3.7-18.3,3.4
					c-11.4-0.3-35.4-10.3-35.4-10.3S776.6,2189.4,773.7,2142c-2.9-47.4,4.6-88.3-15.6-92.1c-20.2-3.8-277.3-5.2-306.7-78.7
					c-29.4-73.6,11-137.1,11-137.1L556.5,1838.7z"/>
				<path class="st9" d="M647,1443.9c0.3,0.1-28,15.1-49.4,9.2c-20-5.6-33.2-32-32.9-32c8.5-1.7,10.9-13.6,10.8-64.5l3.8,0.8
					l64.6,13c0,0-1.5,20.6-1.5,40.1C642.4,1426.7,643.3,1442.2,647,1443.9z"/>
				<path class="st14" d="M643.9,1370.3c0,0-1.5,20.6-1.5,40.1c-36.1-1-55.2-34.5-63-53.1L643.9,1370.3z"/>
				<path class="st9" d="M656,1388.7c0,0-85.5,1.4-85.5-52.6c-0.1-54.1-11.1-90.3,43.4-93.5c54.6-3.2,65.2,17.4,69.5,35.5
					C687.8,1296.1,678.2,1387,656,1388.7z"/>
				<path class="st15" d="M456.7,1677.5c-8.4-35.9,20.2-105.6,50.2-163.2c27.2-52.3,55.4-94.7,57.9-93.2
					c71.6,43.2,78.1,7.3,78.1,7.3l0,0c0,0,65.1,8.8,83.5,41c22.9,40,47.5,151.6,72.1,172.8c-3.8,11.7-2.2,17.9,1.8,32.4
					c0.9,3.1,1.8,6.1,2.8,8.9c3.7,10.2,8.3,18.5,12.3,25.7c-12.5,7.7-36.5,22.3-54.3,11.8c-27-16.1-48.1-65-60-84.5
					c-0.1-0.1-0.1-0.1-0.1-0.2c-25.8,148.4,9.3,182.1-8.5,197.8c-18.8,16.5-45.6-7.9-104.5,18.1c-38.7,17-92.3,41.7-128.5,45.9
					c-18.9,2.3-33.1-1.1-37.7-14.1C408.4,1846.2,472.7,1745.9,456.7,1677.5z"/>
				<path class="st15" d="M637,1356c0,0,1.6,6.9,18.4,5.8c0,0,14.1-0.9,13.7-8.4C669.1,1353.3,655.4,1348,637,1356z"/>
				<path class="st15" d="M409.6,1730.2c19.2-27.3,39.1-41.8,52.2-49c-3-7.9,80.6-112,80.6-128.1c0-16.3,22.3-132,22.3-132
					s-69.7,4.4-93.8,38.5C440.8,1502.3,378.2,1666.7,409.6,1730.2z"/>
				<path class="st9" d="M461.9,1681.1l139.2,36.9l-13.1,23.8c0,0-169.4-1.2-178.4-11.7C400.7,1719.7,461.9,1681.1,461.9,1681.1z"/>
				<path class="st11" d="M701.1,1636.4c11.9,19.5,33,68.4,60,84.5c17.7,10.5,41.8-4.1,54.3-11.8c-4-7.2-8.6-15.5-12.3-25.7
					c-9.9,2.3-22.1,5.3-29.9,7.7C758,1695.8,701.1,1636.4,701.1,1636.4z"/>
				<g>
					<polygon class="st12" points="686.9,1617 612.4,1784.8 789.1,1801.8 858.6,1631.4 					"/>
					<path class="st3" d="M858.6,1631.4l82.4-53.1l-82.4,183l-69.5,40.5C792.8,1792.7,858.6,1631.4,858.6,1631.4z"/>
				</g>
				<path class="st9" d="M601.1,1718c0,0,25.7-11.5,32.3-17.4c4.2-3.8,3.9,1.6,3.5,3.1c-0.8,3-1.9,9-9.4,14
					C616.7,1724.9,601.1,1718,601.1,1718z"/>
				<path class="st4" d="M647.3,1223.2c0,0-27.3,77.7-66.4,90.2c-39.2,12.6-51.8-3.3-51.8-3.3s29.2-26.3,33.2-69.5
					C562.2,1240.6,626,1190.9,647.3,1223.2z"/>
				<path class="st4" d="M641.2,1229.3c0,0,20.2,14.6,25.7,29.6c5.5,15,9.3,46.2,18.3,44.6c0,0,16.9-48.8-6.4-74.5
					C654,1201.6,641.2,1229.3,641.2,1229.3z"/>
				<path class="st4" d="M644.9,1231.4c0,0-14.5,74.5-63.3,100.8c0,0,47.7-47.9,49.3-96.7C632.5,1186.8,644.9,1231.4,644.9,1231.4z"
					/>
				<path class="st4" d="M497.7,1380.3c15.2,10.4,50.6,7.2,50.6,7.2c-2.1-1.8-4.4-6.1-4.4-6.1c20.9,10.5,61.9-9.9,61.9-9.9
					c-36.3,0.1-36.3-53.1-25-58c-1.6-39.8,1.5-90.5,3.1-113.4c-1.6,0.1-2.5,0.2-2.5,0.2C482,1185.1,482.5,1369.9,497.7,1380.3z"/>
				<path class="st9" d="M601.1,1718c0,0,45.2-8.8,55.2-6.5c10,2.2,32.3,11.9,33.9,14c1.7,2.1-6.5,3.3-12.3,0.9
					c-7.5-3.1-20-1.8-20-1.8s24,8,29.9,11.4c0.6,0.3,0.6,1.2,0,1.6c-1.6,1-5.5,1.4-10.8,0c-7.7-1.9-21.4-3.2-21.4-3.2l27.3,9.1
					c0.3,0.1,0.6,0.5,0.5,0.8c-0.2,1.3-2.6,2.6-9.1,2.2c-5.1-0.3-21.8-4.7-21.8-4.7l14.3,9.7c0,0-4,2.3-11.4-1.1
					c-5.1-2.3-20.6-8-24.3-7.6c-3.7,0.4-22.9,5.7-31.2,3c-8.3-2.8-11.9-4-11.9-4L601.1,1718z"/>
			</g>
			<g>
				<g>
					<path class="st5" d="M549.5,2470.6c4,0,7.4-2.8,8.1-6.7l39.6-227.9l57-327.8l15.9-91.7l-40.6-1.2l-7,53.2l-49.4,374
						l-29.3,221.7C543.3,2467.5,546,2470.6,549.5,2470.6z"/>
				</g>
				<path class="st16" d="M622.5,1868.5c26.3,11.8,31.7,39.6,31.7,39.6l15.9-91.7l-40.6-1.2L622.5,1868.5z"/>
				<g>
					<path class="st5" d="M1558.7,2470.6c-4,0-7.4-2.8-8.1-6.7l-39.6-227.9l-57-327.8l-15.9-91.7l40.6-1.2l7,53.2l49.4,374
						l29.3,221.7C1564.9,2467.5,1562.2,2470.6,1558.7,2470.6z"/>
				</g>
				<path class="st16" d="M1485.7,1868.5c-26.3,11.8-31.7,39.6-31.7,39.6l-15.9-91.7l40.6-1.2L1485.7,1868.5z"/>
				<path class="st5" d="M498.4,1852.4h1087c0.4,0,0.7-0.3,0.7-0.8v-44.1c0-0.4-0.3-0.8-0.7-0.8h-1087c-0.4,0-0.7,0.3-0.7,0.8v44.1
					C497.7,1852.1,498,1852.4,498.4,1852.4z"/>
			</g>
			<path class="st17" d="M2695,1899h-198.4c-5.5,0-10-4.6-10-10.1l0,0c0-5.6,4.5-10.1,10-10.1H2695c5.5,0,10,4.6,10,10.1l0,0
				C2705,1894.4,2700.5,1899,2695,1899z"/>
			<path class="st17" d="M2695,1938.7h-198.4c-5.5,0-10-4.6-10-10.1l0,0c0-5.6,4.5-10.1,10-10.1H2695c5.5,0,10,4.6,10,10.1l0,0
				C2705,1934.1,2700.5,1938.7,2695,1938.7z"/>
			<g>
				<path class="st18" d="M2736.8,225.8v2181.4c0,33.7-26.7,61.3-59.7,62.2c-0.5,0-1.1,0-1.6,0H1601.3c-33.7,0-61.2-28-61.2-62.2
					V225.8c0-34.2,27.6-62.2,61.2-62.2h1074.2C2709.2,163.6,2736.8,191.6,2736.8,225.8z"/>
				<path class="st19" d="M2800,225.8v2181.4c0,34.2-27.6,62.2-61.3,62.2H1664.6c-33.7,0-61.2-28-61.2-62.2V225.8
					c0-34.2,27.5-62.2,61.2-62.2h1074.2C2772.5,163.6,2800,191.6,2800,225.8z"/>
				<g>
					<path class="st20" d="M2377.1,250.8H2066c-6.7,0-12.1-5.5-12.1-12.3l0,0c0-6.8,5.5-12.3,12.1-12.3h311.1
						c6.7,0,12.1,5.5,12.1,12.3l0,0C2389.2,245.3,2383.7,250.8,2377.1,250.8z"/>
					<path class="st20" d="M2010.7,250.8L2010.7,250.8c-6.7,0-12.1-5.5-12.1-12.3l0,0c0-6.8,5.5-12.3,12.1-12.3l0,0
						c6.7,0,12.1,5.5,12.1,12.3l0,0C2022.8,245.3,2017.4,250.8,2010.7,250.8z"/>
				</g>
				<path class="st21" d="M2294.6,2341.9c0,21.8-8.6,41.5-22.6,55.8c-14.1,14.5-33.8,23.5-55.4,23.5c-43.1,0-78.1-35.5-78.1-79.3
					c0-28.1,14.4-52.8,36.2-66.9c12.1-7.8,26.4-12.4,41.8-12.4C2259.6,2262.7,2294.6,2298.2,2294.6,2341.9z"/>
				<rect x="1675" y="305.6" class="st6" width="1061.2" height="1918.1"/>
				<path class="st22" d="M2271.9,2397.7c-14.1,14.5-33.8,23.5-55.4,23.5c-43.1,0-78.1-35.5-78.1-79.3c0-28.1,14.4-52.8,36.2-66.9
					C2182.3,2308.8,2205,2365.2,2271.9,2397.7z"/>
			</g>
			<path class="st23" d="M2736.8,460.9v754.6H1726c-11.3,0-20.6-10-20.6-22.2V483.2c0-12.3,9.3-22.2,20.6-22.2L2736.8,460.9
				L2736.8,460.9z"/>
			<path class="st23" d="M2448.5,1367.2v710.1c0,12.2-8.4,22.2-18.6,22.2H1675V1345h754.9C2440.2,1345,2448.5,1355,2448.5,1367.2z"
				/>
			<path class="st24" d="M3201.2,420.4v710.1c0,12.2-9.8,22.2-21.9,22.2H1763.1c-12,0-21.9-10-21.9-22.2V420.4
				c0-12.3,9.8-22.2,21.9-22.2h1416.2C3191.3,398.2,3201.2,408.2,3201.2,420.4z"/>
			<path class="st25" d="M3201.2,420.4v710.1c0,12.2-11.4,22.2-25.4,22.2h-704.5V398.2h704.5
				C3189.7,398.2,3201.2,408.2,3201.2,420.4z"/>
			<g>
				<g>
					<path class="st17" d="M2888.9,496.4h-265.1c-4.4,0-7.9-3.6-7.9-8.1l0,0c0-4.4,3.6-8.1,7.9-8.1h265.1c4.4,0,7.9,3.6,7.9,8.1l0,0
						C2896.8,492.8,2893.2,496.4,2888.9,496.4z"/>
				</g>
				<g>
					<path class="st17" d="M2888.9,527.5h-265.1c-4.4,0-7.9-3.6-7.9-8.1l0,0c0-4.4,3.6-8.1,7.9-8.1h265.1c4.4,0,7.9,3.6,7.9,8.1l0,0
						C2896.8,523.8,2893.2,527.5,2888.9,527.5z"/>
				</g>
				<path class="st17" d="M2584.8,498.1h-24.9c-0.2,0-0.3-0.1-0.3-0.3v-18.9c0-0.2,0.1-0.3,0.3-0.3h24.9c0.2,0,0.3,0.1,0.3,0.3v18.9
					C2585.1,498,2585,498.1,2584.8,498.1z"/>
			</g>
			<g>
				<g>
					<path class="st17" d="M2888.9,610.7h-265.1c-4.4,0-7.9-3.6-7.9-8.1l0,0c0-4.4,3.6-8.1,7.9-8.1h265.1c4.4,0,7.9,3.6,7.9,8.1l0,0
						C2896.8,607.1,2893.2,610.7,2888.9,610.7z"/>
				</g>
				<g>
					<path class="st17" d="M2888.9,641.8h-265.1c-4.4,0-7.9-3.6-7.9-8.1l0,0c0-4.4,3.6-8.1,7.9-8.1h265.1c4.4,0,7.9,3.6,7.9,8.1l0,0
						C2896.8,638.2,2893.2,641.8,2888.9,641.8z"/>
				</g>
				<path class="st17" d="M2584.8,612.5h-24.9c-0.2,0-0.3-0.1-0.3-0.3v-18.9c0-0.2,0.1-0.3,0.3-0.3h24.9c0.2,0,0.3,0.1,0.3,0.3v18.9
					C2585.1,612.3,2585,612.5,2584.8,612.5z"/>
			</g>
			<g>
				<g>
					<path class="st17" d="M2888.9,723.8h-265.1c-4.4,0-7.9-3.6-7.9-8.1l0,0c0-4.4,3.6-8.1,7.9-8.1h265.1c4.4,0,7.9,3.6,7.9,8.1l0,0
						C2896.8,720.2,2893.2,723.8,2888.9,723.8z"/>
				</g>
				<g>
					<path class="st17" d="M2888.9,754.9h-265.1c-4.4,0-7.9-3.6-7.9-8.1l0,0c0-4.4,3.6-8.1,7.9-8.1h265.1c4.4,0,7.9,3.6,7.9,8.1l0,0
						C2896.8,751.2,2893.2,754.9,2888.9,754.9z"/>
				</g>
				<path class="st17" d="M2584.8,725.5h-24.9c-0.2,0-0.3-0.1-0.3-0.3v-18.9c0-0.2,0.1-0.3,0.3-0.3h24.9c0.2,0,0.3,0.1,0.3,0.3v18.9
					C2585.1,725.4,2585,725.5,2584.8,725.5z"/>
			</g>
			<g>
				<path class="st24" d="M2501.9,1292.6v710.1c0,12.2-9.9,22.2-21.9,22.2H1063.8c-12.1,0-21.9-10-21.9-22.2v-710.1
					c0-12.2,9.8-22.2,21.9-22.2H2480C2492,1270.4,2501.9,1280.4,2501.9,1292.6z"/>
				<path class="st25" d="M2501.9,1292.6v710.1c0,12.2-9.9,22.2-21.9,22.2h-629.9v-754.6H2480
					C2492,1270.4,2501.9,1280.4,2501.9,1292.6z"/>
				<path class="st26" d="M1232,1393.5c-43.4,0-78.5,35.7-78.5,79.7c0,44,35.2,79.7,78.5,79.7s78.5-35.7,78.5-79.7
					C1310.5,1429.2,1275.3,1393.5,1232,1393.5z M1286.3,1475.8H1232c-1.4,0-2.5-1.1-2.5-2.6v-59.4c0-1.4,1.1-2.6,2.5-2.6
					c1.4,0,2.5,1.1,2.5,2.6v56.8h51.9c1.4,0,2.5,1.1,2.5,2.6C1288.8,1474.7,1287.7,1475.8,1286.3,1475.8z"/>
				<path class="st26" d="M1224.1,1702.2c-39,0-70.7,32.1-70.7,71.8c0,39.6,70.7,127.8,70.7,127.8s70.7-88.1,70.7-127.8
					C1294.8,1734.3,1263.1,1702.2,1224.1,1702.2z M1224.1,1806.8c-18.2,0-33-15-33-33.5c0-18.5,14.8-33.5,33-33.5
					c18.2,0,33,15,33,33.5C1257.1,1791.8,1242.4,1806.8,1224.1,1806.8z"/>
				<g>
					<path class="st17" d="M1621.1,1746.4h-257.3c-6.5,0-11.9-5.4-11.9-12.1l0,0c0-6.6,5.3-12.1,11.9-12.1h257.3
						c6.5,0,11.9,5.4,11.9,12.1l0,0C1632.9,1740.9,1627.6,1746.4,1621.1,1746.4z"/>
				</g>
				<g>
					<path class="st17" d="M1564.1,1792.5h-211.8c-0.2,0-0.4-0.2-0.4-0.4v-23.3c0-0.2,0.2-0.4,0.4-0.4h211.8c0.2,0,0.4,0.2,0.4,0.4
						v23.3C1564.5,1792.3,1564.3,1792.5,1564.1,1792.5z"/>
				</g>
				<g>
					<path class="st17" d="M1621.1,1462.3h-257.3c-6.5,0-11.9-5.4-11.9-12.1l0,0c0-6.6,5.3-12.1,11.9-12.1h257.3
						c6.5,0,11.9,5.4,11.9,12.1l0,0C1632.9,1456.8,1627.6,1462.3,1621.1,1462.3z"/>
				</g>
				<g>
					<path class="st17" d="M1564.1,1508.4h-211.8c-0.2,0-0.4-0.2-0.4-0.4v-23.3c0-0.2,0.2-0.4,0.4-0.4h211.8c0.2,0,0.4,0.2,0.4,0.4
						v23.3C1564.5,1508.2,1564.3,1508.4,1564.1,1508.4z"/>
				</g>
			</g>
			<polygon class="st27" points="2501.9,1610.4 2501.9,1488.1 2245.2,1380.7 1850.1,1463.3 1850.1,1628.5 2074.3,1721.3 
				2074.6,1721.4 2501.9,1610.5 			"/>
			<polygon class="st28" points="2073.9,1721.4 2073.9,1794.3 1850.1,1695.6 1850.1,1628.6 			"/>
			<polygon class="st26" points="2501.9,1610.4 2074.3,1721.3 2073.9,1721.4 2073.9,1794.3 2501.9,1675.6 2501.9,1610.5 			"/>
			<g>
				<path class="st9" d="M3047,674.5c-1.5-0.9-3.5-2.1-5.9-3.4l0,0l-38.3-31.8c0,0-4.9,2.8,0,8.2c0.6,0.7,1.5,1.6,2.5,2.6
					l-14.6-11.6c0,0-2.6,2.6-0.9,6.8c1.2,3,14.9,14.9,22.6,21.4c-4.7-2.3-11.2-7.3-21-17.2c-6.1-6.2-4.1,3.1-3.2,7.3
					c1.6,7.3,20.7,31.7,27.4,42.7c6.7,11,10,21.9,5.3,17.1s-30.1-20.7-32.8-17.1c-2.7,3.5,12.7,17.1,20.1,28
					c7.4,10.9,15.4,29.2,41.5,33.3c26.1,4.1,30.6-9.3,30.6-9.3S3059,682,3047,674.5z"/>
				<path class="st9" d="M3853.8,1336.9c0,0-6.4,62.8-13.3,74.7c-7,11.9-39.4,46.4-49.4,57.3c-0.7,0.7-7.1-5-2.2-13.4
					c19.7-33.7,14.2-25.6,7.4-47.8c-3.4-11-5.5,20.6-11,21.3s-3.6-33.3-3.8-43.6c-0.2-10.3,28-15.2,31.3-52.5
					C3814.9,1308.8,3853.8,1336.9,3853.8,1336.9z"/>
				<path class="st4" d="M3659.9,692.5c0,0-51.4,256.3-334.4,340c-88.3,26.1-289-269.2-289-269.2s7.1-27.2,51.3-21
					c0,0,195.4,131.4,220,145.6c21.8,12.7,165.4-162.8,230.8-191.1C3604,668.7,3659.9,692.5,3659.9,692.5z"/>
				<g>
					<path class="st4" d="M3997.7,2303.7c0,0,35.1,32.5,28.3,55.6c-6.9,23.1-38.5,38.5-42.8,66.8c-4.3,28.2-21.4,43.7-36.8,43.7
						c-15.4,0-73.5,0-73.5,0s-11.4-19.9,16.1-25.9c27.4-6,37.7-39.2,36-70c-1.7-30.8,2.6-71.9,2.6-71.9l58.2-13.7L3997.7,2303.7z"/>
					<path class="st4" d="M3567,2387.8c0,0,6.3,74-9.1,81.8l-197.2-0.4c0,0,0-23.1,31.7-28.2c31.7-5.1,87.3-24,96.8-65.9
						C3498.6,2333.1,3567,2387.8,3567,2387.8z"/>
					<path class="st26" d="M3400.5,1342c0,0,10.4,129.8,22.6,285.8c16.6,211.9,36.6,472.2,38.6,521.5
						c3.4,85.6,17.1,222.6,17.1,222.6s32.5,32.5,97.6,18.8c0,0,58-195.5,74.6-402.4c0.2-3.4,0.5-6.8,0.8-10.2
						c15.4-210.6,39.4-654.1,39.4-654.1L3400.5,1342z"/>
					<path class="st29" d="M3400.5,1342c0,0,10.4,129.8,22.6,285.8l227.9,360.6c0.2-3.4,0.5-6.8,0.8-10.2
						c15.4-210.6,39.4-654.1,39.4-654.1L3400.5,1342z"/>
					<path class="st26" d="M3448,1357.4c0,0,187.5,470,310.8,690.9c123.3,220.9,161.8,282.5,161.8,282.5s70.6-28.2,77.1-47.5
						c0,0-47.1-426.4-129.7-530.4c-46.7-58.7-101.5-235-104-296.7s-16.7-183.6-16.7-183.6L3448,1357.4z"/>
				</g>
				<path class="st9" d="M3694.7,633c0,0-126.9,62.2-200,39.1c0,0,18-23.1,49.5-40.2c-2.5-14.9-4.5-27.8-5.6-38.8
					c-3.1-25.3-3.1-39.7-3.1-39.7l48.9-39.1l46.4-37.4C3627.2,582.1,3694.7,633,3694.7,633z"/>
				<path class="st30" d="M3761.6,1296.7c0.3,7.9-16.3,16.9-23.6,20.2c-54.3,24.2-104.9,41.1-162.3,46.7c-67.8,7-148-8.5-175.6-7.9
					c-2.8,0-5.3-1.1-7.6-3.1c-2-1.4-3.4-84.4-2-188.7c0-4.2,0-8.4,0.3-12.6v-1.4c0.6-40.8,2-83.5,3.9-126.3
					c3.9-93.9,11.3-184.5,23.6-234.6c14.9-59.1,48.7-98.2,79.3-126.6l25.3-22.5c25.3,5,52,3.7,78.8-9.6
					c29.3-14.3,60.8-29.8,65.8-25.9c38.3,28.4,64.1,92.2,77.9,173.8c0.1,0.4,0.1,0.8,0.2,1.2c7.7,46.6,11.6,98.8,11.3,153.5
					c0,20.3-0.6,41.1-1.7,61.6c-5.6,93-1.9,175.8,1.8,233.2c0.7,11.3,1.5,21.7,2.1,30.9C3760.5,1275,3761.3,1287.7,3761.6,1296.7z"
					/>
				<path class="st4" d="M3757.2,1227.8c-210.3-246.6-79.8-425.8-79.8-425.8l68.4-22.5c7.7,46.6,11.6,98.8,11.3,153.5
					c0,20.3-0.6,41.1-1.7,61.6C3749.8,1087.6,3753.5,1170.4,3757.2,1227.8z"/>
				<path class="st31" d="M3631.7,517.2c0,0-32.1,59.4-93.1,75.9c-3.1-25.3-3.1-39.7-3.1-39.7l48.9-39.1L3631.7,517.2z"/>
				<path class="st9" d="M3513.2,551.7c0,0,121,20.1,132.4-55.5c11.4-75.6,34.6-123.9-42.2-139.9c-76.8-16-96.2,10.5-106.1,34.8
					C3487.4,415.5,3482,544.5,3513.2,551.7z"/>
				<path class="st12" d="M3689.6,347.3c1.1-1.3,3.6-2.3,9.3-2.6c0,0-4.5-2.9-10.5-3c-1.2-8-5.3-22.1-18.9-25.5
					c0,0,7.3,3.9,8.2,12.4c-15.6-16.3-49.1-28.2-141.9-20.7c-122.2,9.8-82,89.3-66.1,98.8c15.8,9.5,55.7-16.5,85.2-14.1
					c29.5,2.4,35.1,45.7,45.1,51.6c10,5.9,6.1-4.6,19.6-10.8c13.5-6.2,14.8,16.6,10.9,31.4c-3.9,14.8,14.7,34.3,14.7,34.3
					s0,0,18.8-20.6c18.8-20.6,36.5-107.6,28-126.2C3691.1,350.7,3690.3,349,3689.6,347.3z"/>
				<path class="st30" d="M3667.6,603.8c0,0,76.6,36.8,113.3,93.4c57,87.8,123,407.8,124.2,437.5c1.2,29.6-48.2,238.9-48.2,238.9
					s-50.1-3.3-63-29c0,0,10-215,3.7-228.8c-6.3-13.8-208.9-288.4-186.1-346.9C3634.2,710.3,3667.6,603.8,3667.6,603.8z"/>
				<path class="st9" d="M3840.5,1411.6l-36.2,61.6c0,0-4.3-1.8-3.7-6.3c0.7-4.4,11.2-37.7,11.2-37.7L3840.5,1411.6z"/>
				<path class="st9" d="M3804.2,1413.3c0,0-26.1,30.3-20.3,37.1l18.9-14.8L3804.2,1413.3z"/>
			</g>
			<path class="st2" d="M2169.3,1488.3c0,0-10.9-2.1-21.1,4C2148.2,1492.3,2162.2,1497.1,2169.3,1488.3z"/>
			<g>
				<path class="st32" d="M2151.8,1448.3c-85.2,6.2-162.6,11.3-216.9,29.5c-49.9,16.7-80.5,39.2-80.5,64c0,27.5,33.3,56.9,98,69.4
					c54.4,10.4,140.1,31.8,199.4,24.1c74.4-9.7,140.5-8.3,192.4-22.2l-24.1-8.9l-168-62.4l270.6,7.6l25.4,0.7
					c0.8-2.7,1.2-5.5,1.2-8.3c0-26.5-35-50.4-91.3-67.4C2304.4,1458.2,2231.6,1442.4,2151.8,1448.3z"/>
				<path class="st33" d="M2422.7,1549.4l-270.6-7.6l168,62.4c-16.7,3.8-34.9,7.1-54.4,9.7c-34.6,4.7-74.6,1.5-113.6,7.2
					c-64.7,9.6-124.3-12.4-172.2-17.9c-51.6-6-105.5-37.4-99.6-61.4c6.1-25,41-53.8,103.6-62.3c47-6.4,109.1-21.1,172.6-21.1
					c51.6,0,94.9,13,136.5,15.6c78.5,4.8,131,39.1,131,67.9C2423.9,1544.4,2423.5,1546.9,2422.7,1549.4z"/>
				<g>
					<path class="st12" d="M2009.3,1533.2c0,2.7-5.7,4.9-12.7,4.9c-7,0-12.7-2.2-12.7-4.9c0-2.7,5.7-4.9,12.7-4.9
						C2003.6,1528.2,2009.3,1530.5,2009.3,1533.2z"/>
					<path class="st12" d="M2086.6,1509.4c0,2.7-5.7,4.9-12.7,4.9c-7,0-12.7-2.2-12.7-4.9s5.7-4.9,12.7-4.9
						C2081,1504.5,2086.6,1506.7,2086.6,1509.4z"/>
					<path class="st12" d="M2038.9,1496.3c0,2.2-4.7,4.1-10.5,4.1c-5.8,0-10.5-1.8-10.5-4.1c0-2.2,4.7-4.1,10.5-4.1
						C2034.2,1492.3,2038.9,1494.1,2038.9,1496.3z"/>
					<path class="st12" d="M2133.7,1486.3c0,2.5-5.2,4.5-11.7,4.5c-6.5,0-11.7-2-11.7-4.5s5.2-4.5,11.7-4.5
						C2128.4,1481.7,2133.7,1483.7,2133.7,1486.3z"/>
					<path class="st12" d="M2133.7,1533.2c0,3.9-8.3,7.2-18.4,7.2s-18.4-3.2-18.4-7.2c0-3.9,8.3-7.1,18.4-7.1
						S2133.7,1529.2,2133.7,1533.2z"/>
					<path class="st12" d="M2173.7,1507c0,2.7-5.7,4.9-12.7,4.9c-7,0-12.7-2.2-12.7-4.9s5.7-4.9,12.7-4.9
						C2168,1502.1,2173.7,1504.3,2173.7,1507z"/>
					<path class="st12" d="M2232.5,1509.5c0,1.4-2.9,2.5-6.4,2.5s-6.4-1.1-6.4-2.5c0-1.4,2.9-2.5,6.4-2.5
						S2232.5,1508.1,2232.5,1509.5z"/>
					<path class="st12" d="M2205.8,1488.3c0,1.4-2.9,2.5-6.4,2.5c-3.5,0-6.4-1.1-6.4-2.5c0-1.4,2.9-2.5,6.4-2.5
						C2203,1485.8,2205.8,1486.9,2205.8,1488.3z"/>
					<path class="st12" d="M2133.7,1567.9c0,1.4-2.9,2.5-6.4,2.5c-3.5,0-6.4-1.1-6.4-2.5c0-1.4,2.9-2.5,6.4-2.5
						C2130.8,1565.5,2133.7,1566.6,2133.7,1567.9z"/>
					<path class="st12" d="M2177.2,1579.2c0,1.4-2.9,2.5-6.4,2.5s-6.4-1.1-6.4-2.5c0-1.4,2.9-2.5,6.4-2.5
						S2177.2,1577.8,2177.2,1579.2z"/>
					<path class="st12" d="M2080.9,1559.8c0,3.1-6.4,5.6-14.4,5.6s-14.4-2.5-14.4-5.6s6.4-5.6,14.4-5.6
						C2074.5,1554.2,2080.9,1556.7,2080.9,1559.8z"/>
					<path class="st2" d="M1998.5,1561.2c0,0-9.4-2.4-18.6,2.4C1979.9,1563.6,1991.9,1568.5,1998.5,1561.2z"/>
					<path class="st2" d="M2071,1525.9c0,0-12.8-3.3-25.2,3.3C2045.8,1529.2,2062,1535.8,2071,1525.9z"/>
					<path class="st2" d="M2208.5,1507.1c0,0-13.2,0-23.6,9.5C2185,1516.7,2202.2,1519,2208.5,1507.1z"/>
					<path class="st2" d="M2269.6,1514.2c0,0-11.2-7.1-24.9-4.7C2244.7,1509.6,2258.1,1520.9,2269.6,1514.2z"/>
					<path class="st2" d="M2171.7,1534.5c0,0-6.2-9.4-17.7-12.3C2154.1,1522.2,2160.6,1535.6,2171.7,1534.5z"/>
					<path class="st2" d="M2150.1,1547.8c0,0-11.1-0.8-20.4,6.5C2129.7,1554.4,2144.1,1557.4,2150.1,1547.8z"/>
					<path class="st2" d="M2160.5,1589.7c0,0-9.1-6.5-20.8-5C2139.7,1584.7,2150.5,1594.8,2160.5,1589.7z"/>
					<path class="st2" d="M2176.7,1561.6c0,0-11.1-0.4-20.2,7.2C2156.5,1568.8,2171,1571.4,2176.7,1561.6z"/>
					<path class="st2" d="M2125.9,1509.8c0,0-10.8-2.5-21.2,3.3C2104.7,1513.1,2118.4,1518.4,2125.9,1509.8z"/>
					<path class="st2" d="M2098.1,1497.5c0,0-8.3-7.5-20.1-7.5C2078,1490,2087.5,1501.4,2098.1,1497.5z"/>
					<path class="st26" d="M2015.7,1567.4L2015.7,1567.4c-12.5,3.2-18.8,9.7-13.9,14.5l0,0c3.6,3.6,11.7,2.8,20.8,0.9l4.6,4.5
						c0.6,0.6,2.5,0.8,4.2,0.4l8.9-2.3c1.6-0.4,2.5-1.3,1.8-1.9l-4.6-4.5c8.4-2.5,13.6-5.1,9.8-8.8l0,0
						C2042.4,1565.4,2028.2,1564.1,2015.7,1567.4z"/>
					<path class="st26" d="M2253,1484.5L2253,1484.5c10.2,2.6,15.3,7.9,11.4,11.8l0,0c-3,2.9-9.5,2.3-16.9,0.7l-3.8,3.7
						c-0.5,0.5-2,0.7-3.4,0.3l-7.2-1.9c-1.3-0.3-2-1-1.5-1.6l3.7-3.7c-6.8-2-11-4.1-8-7.1l0,0
						C2231.3,1482.9,2242.8,1481.9,2253,1484.5z"/>
					<path class="st26" d="M2107.6,1547.2L2107.6,1547.2c10.2,2.6,15.3,7.9,11.4,11.8l0,0c-3,2.9-9.5,2.3-16.9,0.7l-3.8,3.7
						c-0.5,0.5-2,0.7-3.4,0.3l-7.2-1.9c-1.3-0.3-2-1-1.5-1.6l3.7-3.7c-6.8-2-11-4.1-8-7.1l0,0
						C2085.9,1545.6,2097.4,1544.6,2107.6,1547.2z"/>
					<path class="st26" d="M2021.4,1507.1L2021.4,1507.1c-10.2,2.6-15.3,7.9-11.4,11.8l0,0c3,2.9,9.5,2.3,16.9,0.7l3.8,3.7
						c0.5,0.5,2,0.7,3.4,0.3l7.2-1.9c1.3-0.3,2-1,1.5-1.6l-3.7-3.7c6.8-2,11-4.1,8-7.1l0,0
						C2043.2,1505.5,2031.6,1504.5,2021.4,1507.1z"/>
				</g>
			</g>
			<g>
				<path class="st32" d="M2464.9,1541.5l-233.5-6.6l-31.9-9v8.1l182.3,67.7c55-14.7,91.9-35.9,98.6-59.8v-8.1L2464.9,1541.5z"/>
				<path class="st34" d="M2480.4,1533.8c-6.7,23.9-43.6,45.1-98.6,59.8l-82.6-30.7l-17.2-6.4c0,0,0,0,0,0l-82.4-30.6L2480.4,1533.8
					z"/>
				<g>
					<path class="st12" d="M2292.9,1540.6c0,2.7-5.7,4.9-12.7,4.9s-12.7-2.2-12.7-4.9s5.7-4.9,12.7-4.9
						C2287.2,1535.6,2292.9,1537.8,2292.9,1540.6z"/>
					<path class="st12" d="M2306.4,1558.5c0,2-2.9,3.7-7.2,4.5l-17.2-6.4c1.9-1.8,6.5-3,11.7-3
						C2300.7,1553.6,2306.4,1555.8,2306.4,1558.5z"/>
					<path class="st12" d="M2351.8,1559.6c0,1.4-2.9,2.5-6.4,2.5c-3.5,0-6.4-1.1-6.4-2.5c0-1.4,2.9-2.5,6.4-2.5
						C2349,1557.2,2351.8,1558.3,2351.8,1559.6z"/>
					<path class="st12" d="M2385.9,1545.5c0,1.4-2.9,2.5-6.4,2.5s-6.4-1.1-6.4-2.5c0-1.4,2.9-2.5,6.4-2.5
						C2383.1,1543,2385.9,1544.1,2385.9,1545.5z"/>
					<path class="st12" d="M2321.4,1541.8c0,1.4-2.9,2.5-6.4,2.5s-6.4-1.1-6.4-2.5c0-1.4,2.9-2.5,6.4-2.5
						C2318.5,1539.3,2321.4,1540.4,2321.4,1541.8z"/>
					<path class="st12" d="M2353.9,1537.4c0,2.2-4.7,4.1-10.5,4.1s-10.5-1.8-10.5-4.1c0-2.2,4.7-4.1,10.5-4.1
						S2353.9,1535.2,2353.9,1537.4z"/>
					<path class="st12" d="M2343.4,1550.6c0,1.5-3.2,2.8-7.1,2.8s-7.1-1.2-7.1-2.8s3.2-2.8,7.1-2.8S2343.4,1549.1,2343.4,1550.6z"/>
					<path class="st12" d="M2250.5,1535.6c0,1-2.1,1.8-4.7,1.8c-2.6,0-4.7-0.8-4.7-1.8c0-1,2.1-1.8,4.7-1.8
						C2248.4,1533.8,2250.5,1534.6,2250.5,1535.6z"/>
					<path class="st2" d="M2304.4,1542.1c0,0-9.1,0-16.4,6.6C2288,1548.7,2300,1550.4,2304.4,1542.1z"/>
					<path class="st2" d="M2409.7,1548.4c0,0-7-6-16.7-5.8C2393.1,1542.6,2401.1,1551.7,2409.7,1548.4z"/>
					<path class="st2" d="M2326.6,1558.5c0,0-7.1-5.8-16.8-5.2C2309.8,1553.3,2318.1,1562.1,2326.6,1558.5z"/>
					<path class="st2" d="M2381.8,1564.3c0,0-9.1-1.1-17.1,4.5C2364.7,1568.8,2376.4,1571.9,2381.8,1564.3z"/>
					<path class="st2" d="M2241.7,1530.1c0,0-7.9-1.8-15.4,2.5C2226.3,1532.6,2236.3,1536.3,2241.7,1530.1z"/>
				</g>
			</g>
			<g>
				<g>
					<path class="st32" d="M1906.6,475.2c-37.8,5.5-72,10-96.1,26.1c-22.1,14.8-35.7,34.7-35.7,56.6c0,24.3,14.7,50.4,43.4,61.4
						c24.1,9.2,62.1,28.2,88.3,21.4c32.9-8.5,62.2-7.4,85.2-19.6l-10.7-7.9l-74.4-55.2l119.9,6.7l11.2,0.6c0.3-2.4,0.5-4.9,0.5-7.3
						c0-23.4-15.5-44.6-40.4-59.7C1974.2,484,1941.9,470,1906.6,475.2z"/>
					<path class="st33" d="M2026.6,564.6l-119.9-6.7l74.4,55.2c-7.4,3.4-15.5,6.3-24.1,8.6c-15.3,4.1-33,1.3-50.3,6.4
						c-28.6,8.5-55.1-11-76.3-15.9c-22.8-5.3-46.7-33.1-44.1-54.3c2.7-22.1,18.2-47.6,45.9-55.2c20.8-5.6,48.3-18.7,76.4-18.7
						c22.8,0,42,11.5,60.4,13.8c34.8,4.3,58,34.6,58,60.1C2027.1,560.2,2026.9,562.4,2026.6,564.6z"/>
					<g>
						<path class="st12" d="M1843.5,550.3c0,2.4-2.5,4.4-5.6,4.4c-3.1,0-5.6-2-5.6-4.4c0-2.4,2.5-4.4,5.6-4.4
							C1841,545.9,1843.5,547.9,1843.5,550.3z"/>
						<path class="st12" d="M1877.7,529.3c0,2.4-2.5,4.4-5.6,4.4c-3.1,0-5.6-2-5.6-4.4c0-2.4,2.5-4.4,5.6-4.4
							C1875.2,524.9,1877.7,526.9,1877.7,529.3z"/>
						<path class="st12" d="M1856.6,517.7c0,2-2.1,3.6-4.6,3.6s-4.6-1.6-4.6-3.6s2.1-3.6,4.6-3.6S1856.6,515.7,1856.6,517.7z"/>
						<path class="st12" d="M1898.6,508.8c0,2.2-2.3,4-5.2,4c-2.9,0-5.2-1.8-5.2-4s2.3-4,5.2-4
							C1896.3,504.8,1898.6,506.5,1898.6,508.8z"/>
						<path class="st12" d="M1898.6,550.3c0,3.5-3.7,6.3-8.2,6.3c-4.5,0-8.2-2.8-8.2-6.3c0-3.5,3.7-6.3,8.2-6.3
							C1894.9,544,1898.6,546.8,1898.6,550.3z"/>
						<path class="st12" d="M1916.3,527.2c0,2.4-2.5,4.4-5.6,4.4c-3.1,0-5.6-2-5.6-4.4c0-2.4,2.5-4.4,5.6-4.4
							C1913.8,522.8,1916.3,524.7,1916.3,527.2z"/>
						<path class="st12" d="M1942.4,529.3c0,1.2-1.3,2.2-2.8,2.2c-1.6,0-2.8-1-2.8-2.2c0-1.2,1.3-2.2,2.8-2.2
							C1941.1,527.2,1942.4,528.1,1942.4,529.3z"/>
						<path class="st12" d="M1930.5,510.6c0,1.2-1.3,2.2-2.8,2.2c-1.6,0-2.8-1-2.8-2.2c0-1.2,1.3-2.2,2.8-2.2
							C1929.3,508.4,1930.5,509.4,1930.5,510.6z"/>
						<path class="st12" d="M1898.6,581c0,1.2-1.3,2.2-2.8,2.2c-1.6,0-2.8-1-2.8-2.2c0-1.2,1.3-2.2,2.8-2.2
							C1897.3,578.8,1898.6,579.8,1898.6,581z"/>
						<path class="st12" d="M1917.9,591c0,1.2-1.3,2.2-2.8,2.2c-1.6,0-2.8-1-2.8-2.2c0-1.2,1.3-2.2,2.8-2.2
							C1916.6,588.8,1917.9,589.8,1917.9,591z"/>
						<path class="st12" d="M1875.2,573.8c0,2.7-2.9,4.9-6.4,4.9c-3.5,0-6.4-2.2-6.4-4.9s2.9-4.9,6.4-4.9
							C1872.3,568.9,1875.2,571.1,1875.2,573.8z"/>
						<path class="st2" d="M1838.7,575.1c0,0-4.2-2.1-8.2,2.2C1830.5,577.2,1835.7,581.5,1838.7,575.1z"/>
						<path class="st2" d="M1870.8,543.9c0,0-5.6-2.9-11.1,2.9C1859.7,546.8,1866.8,552.6,1870.8,543.9z"/>
						<path class="st2" d="M1931.7,527.2c0,0-5.8,0-10.4,8.5C1921.3,535.7,1928.9,537.7,1931.7,527.2z"/>
						<path class="st2" d="M1958.8,533.5c0,0-4.9-6.3-11-4.1C1947.7,529.4,1953.7,539.4,1958.8,533.5z"/>
						<path class="st2" d="M1915.4,551.5c0,0-2.7-8.3-7.8-10.9C1907.6,540.6,1910.5,552.4,1915.4,551.5z"/>
						<path class="st2" d="M1905.8,563.3c0,0-4.9-0.7-9.1,5.8C1896.8,569,1903.2,571.7,1905.8,563.3z"/>
						<path class="st2" d="M1910.5,600.3c0,0-4-5.7-9.2-4.5C1901.2,595.9,1906,604.8,1910.5,600.3z"/>
						<path class="st2" d="M1917.6,575.4c0,0-4.9-0.4-9,6.4C1908.7,581.8,1915.1,584.1,1917.6,575.4z"/>
						<path class="st2" d="M1895.1,529.6c0,0-4.8-2.2-9.4,2.9C1885.7,532.5,1891.8,537.2,1895.1,529.6z"/>
						<path class="st2" d="M1882.8,518.8c0,0-3.7-6.7-8.9-6.6C1873.9,512.1,1878.1,522.2,1882.8,518.8z"/>
						<path class="st26" d="M1846.3,580.5L1846.3,580.5c-5.5,2.8-8.3,8.6-6.2,12.8l0,0c1.6,3.2,5.2,2.5,9.2,0.7l2,4
							c0.3,0.6,1.1,0.7,1.8,0.3l3.9-2c0.7-0.4,1.1-1.1,0.8-1.7l-2-4c3.7-2.2,6-4.5,4.3-7.7l0,0
							C1858.1,578.8,1851.8,577.7,1846.3,580.5z"/>
						<path class="st26" d="M1951.4,507.2L1951.4,507.2c4.5,2.3,6.8,7,5,10.4l0,0c-1.3,2.6-4.2,2-7.5,0.6l-1.7,3.3
							c-0.2,0.5-0.9,0.6-1.5,0.3l-3.2-1.6c-0.6-0.3-0.9-0.9-0.7-1.4l1.7-3.2c-3-1.8-4.9-3.7-3.5-6.3l0,0
							C1941.8,505.8,1946.9,504.9,1951.4,507.2z"/>
						<path class="st26" d="M1887,562.7L1887,562.7c4.5,2.3,6.8,7,5,10.4l0,0c-1.3,2.6-4.2,2-7.5,0.6l-1.7,3.3
							c-0.2,0.5-0.9,0.6-1.5,0.3l-3.2-1.6c-0.6-0.3-0.9-0.9-0.7-1.4l1.7-3.2c-3-1.8-4.9-3.7-3.5-6.3l0,0
							C1877.4,561.3,1882.5,560.4,1887,562.7z"/>
						<path class="st26" d="M1848.9,527.2L1848.9,527.2c-4.5,2.3-6.8,7-5,10.4l0,0c1.3,2.6,4.2,2,7.5,0.6l1.7,3.3
							c0.2,0.5,0.9,0.6,1.5,0.3l3.2-1.6c0.6-0.3,0.9-0.9,0.7-1.4l-1.7-3.2c3-1.8,4.9-3.7,3.5-6.3l0,0
							C1858.5,525.8,1853.4,524.9,1848.9,527.2z"/>
					</g>
				</g>
				<g>
					<path class="st32" d="M2045.3,557.7l-103.4-5.8l-14.1-8v7.2l80.7,59.9c24.4-13,40.7-31.8,43.7-52.9v-7.2L2045.3,557.7z"/>
					<path class="st34" d="M2052.1,550.9c-3,21.2-19.3,39.9-43.7,52.9l-36.6-27.1l-7.6-5.6l0,0l-36.5-27.1L2052.1,550.9z"/>
					<g>
						<path class="st12" d="M1969.1,556.8c0,2.4-2.5,4.4-5.6,4.4c-3.1,0-5.6-2-5.6-4.4c0-2.4,2.5-4.4,5.6-4.4
							C1966.6,552.4,1969.1,554.4,1969.1,556.8z"/>
						<path class="st12" d="M1975.1,572.7c0,1.8-1.3,3.2-3.2,3.9l-7.6-5.6c0.9-1.6,2.9-2.7,5.2-2.7
							C1972.5,568.3,1975.1,570.3,1975.1,572.7z"/>
						<ellipse class="st12" cx="1992.4" cy="573.7" rx="2.8" ry="2.2"/>
						<path class="st12" d="M2010.3,561.2c0,1.2-1.3,2.2-2.8,2.2c-1.6,0-2.8-1-2.8-2.2c0-1.2,1.3-2.2,2.8-2.2
							C2009,559,2010.3,560,2010.3,561.2z"/>
						<path class="st12" d="M1981.7,557.9c0,1.2-1.3,2.2-2.8,2.2c-1.6,0-2.8-1-2.8-2.2c0-1.2,1.3-2.2,2.8-2.2
							C1980.4,555.7,1981.7,556.7,1981.7,557.9z"/>
						<path class="st12" d="M1996.1,554c0,2-2.1,3.6-4.6,3.6s-4.6-1.6-4.6-3.6s2.1-3.6,4.6-3.6S1996.1,552.1,1996.1,554z"/>
						<path class="st12" d="M1991.5,565.7c0,1.3-1.4,2.4-3.1,2.4s-3.1-1.1-3.1-2.4c0-1.3,1.4-2.4,3.1-2.4S1991.5,564.4,1991.5,565.7
							z"/>
						<path class="st12" d="M1950.3,552.4c0,0.9-0.9,1.6-2.1,1.6s-2.1-0.7-2.1-1.6c0-0.9,0.9-1.6,2.1-1.6S1950.3,551.6,1950.3,552.4
							z"/>
						<path class="st2" d="M1974.2,558.2c0,0-4,0-7.3,5.9C1966.9,564.1,1972.2,565.5,1974.2,558.2z"/>
						<path class="st2" d="M2020.8,563.7c0,0-3.1-5.3-7.4-5.1C2013.5,558.6,2017,566.7,2020.8,563.7z"/>
						<path class="st2" d="M1984,572.7c0,0-3.2-5.1-7.5-4.6C1976.6,568.1,1980.3,575.9,1984,572.7z"/>
						<path class="st2" d="M2008.4,577.9c0,0-4-1-7.6,4C2000.9,581.8,2006.1,584.6,2008.4,577.9z"/>
						<path class="st2" d="M1946.4,547.5c0,0-3.5-1.6-6.8,2.2C1939.6,549.8,1944,553.1,1946.4,547.5z"/>
					</g>
				</g>
			</g>
			<g>
				<g>
					<path class="st32" d="M2237.8,694c-37.8,5.5-72,10-96.1,26.1c-22.1,14.8-35.7,34.7-35.7,56.6c0,24.3,14.7,50.4,43.4,61.4
						c24.1,9.2,62.1,28.2,88.3,21.4c32.9-8.5,62.2-7.4,85.2-19.6l-10.7-7.9l-74.4-55.2l119.9,6.7l11.2,0.6c0.3-2.4,0.5-4.9,0.5-7.3
						c0-23.4-15.5-44.6-40.4-59.7C2305.4,702.8,2273.1,688.8,2237.8,694z"/>
					<path class="st33" d="M2357.8,783.4l-119.9-6.7l74.4,55.2c-7.4,3.4-15.5,6.3-24.1,8.6c-15.3,4.1-33,1.3-50.3,6.4
						c-28.6,8.5-55.1-11-76.3-15.9c-22.8-5.3-46.7-33.1-44.1-54.3c2.7-22.1,18.2-47.6,45.9-55.2c20.8-5.6,48.3-18.7,76.4-18.7
						c22.8,0,42,11.5,60.4,13.8c34.8,4.3,58,34.6,58,60.1C2358.3,779,2358.1,781.2,2357.8,783.4z"/>
					<g>
						<path class="st12" d="M2174.7,769.1c0,2.4-2.5,4.4-5.6,4.4s-5.6-2-5.6-4.4c0-2.4,2.5-4.4,5.6-4.4S2174.7,766.7,2174.7,769.1z"
							/>
						<path class="st12" d="M2208.9,748.1c0,2.4-2.5,4.4-5.6,4.4c-3.1,0-5.6-2-5.6-4.4s2.5-4.4,5.6-4.4
							C2206.4,743.7,2208.9,745.7,2208.9,748.1z"/>
						<path class="st12" d="M2187.8,736.5c0,2-2.1,3.6-4.6,3.6c-2.6,0-4.6-1.6-4.6-3.6s2.1-3.6,4.6-3.6
							C2185.7,732.9,2187.8,734.5,2187.8,736.5z"/>
						<path class="st12" d="M2229.8,727.6c0,2.2-2.3,4-5.2,4s-5.2-1.8-5.2-4s2.3-4,5.2-4S2229.8,725.4,2229.8,727.6z"/>
						<path class="st12" d="M2229.8,769.1c0,3.5-3.7,6.3-8.2,6.3c-4.5,0-8.2-2.8-8.2-6.3c0-3.5,3.7-6.3,8.2-6.3
							C2226.1,762.8,2229.8,765.6,2229.8,769.1z"/>
						<path class="st12" d="M2247.5,746c0,2.4-2.5,4.4-5.6,4.4c-3.1,0-5.6-2-5.6-4.4c0-2.4,2.5-4.4,5.6-4.4
							C2245,741.6,2247.5,743.6,2247.5,746z"/>
						<ellipse class="st12" cx="2270.7" cy="748.2" rx="2.8" ry="2.2"/>
						<path class="st12" d="M2261.7,729.4c0,1.2-1.3,2.2-2.8,2.2s-2.8-1-2.8-2.2c0-1.2,1.3-2.2,2.8-2.2
							C2260.5,727.2,2261.7,728.2,2261.7,729.4z"/>
						<path class="st12" d="M2229.8,799.8c0,1.2-1.3,2.2-2.8,2.2s-2.8-1-2.8-2.2c0-1.2,1.3-2.2,2.8-2.2
							C2228.5,797.6,2229.8,798.6,2229.8,799.8z"/>
						<ellipse class="st12" cx="2246.2" cy="809.8" rx="2.8" ry="2.2"/>
						<path class="st12" d="M2206.4,792.7c0,2.7-2.9,4.9-6.4,4.9c-3.5,0-6.4-2.2-6.4-4.9s2.9-4.9,6.4-4.9
							C2203.5,787.7,2206.4,789.9,2206.4,792.7z"/>
						<path class="st2" d="M2169.9,793.9c0,0-4.2-2.1-8.2,2.2C2161.7,796,2166.9,800.4,2169.9,793.9z"/>
						<path class="st2" d="M2202,762.7c0,0-5.6-2.9-11.1,2.9C2190.9,765.6,2198,771.4,2202,762.7z"/>
						<path class="st2" d="M2262.9,746c0,0-5.8,0-10.4,8.5C2252.5,754.5,2260.1,756.6,2262.9,746z"/>
						<path class="st2" d="M2290,752.4c0,0-4.9-6.3-11-4.1C2278.9,748.2,2284.9,758.2,2290,752.4z"/>
						<path class="st2" d="M2246.6,770.3c0,0-2.7-8.3-7.8-10.9C2238.8,759.4,2241.7,771.2,2246.6,770.3z"/>
						<path class="st2" d="M2237,782c0,0-4.9-0.7-9.1,5.8C2228,787.8,2234.4,790.6,2237,782z"/>
						<path class="st2" d="M2241.7,819.1c0,0-4-5.7-9.2-4.5C2232.4,814.7,2237.2,823.6,2241.7,819.1z"/>
						<path class="st2" d="M2248.8,794.3c0,0-4.9-0.4-9,6.4C2239.9,800.6,2246.3,802.9,2248.8,794.3z"/>
						<path class="st2" d="M2226.3,748.4c0,0-4.8-2.2-9.4,2.9C2216.9,751.3,2223,756,2226.3,748.4z"/>
						<path class="st2" d="M2214,737.6c0,0-3.7-6.7-8.9-6.6C2205.1,730.9,2209.3,741,2214,737.6z"/>
						<path class="st26" d="M2177.5,799.3L2177.5,799.3c-5.5,2.8-8.3,8.6-6.2,12.8l0,0c1.6,3.2,5.2,2.5,9.2,0.7l2,4
							c0.3,0.6,1.1,0.7,1.8,0.3l3.9-2c0.7-0.4,1.1-1.1,0.8-1.7l-2-4c3.7-2.2,6-4.5,4.3-7.7l0,0
							C2189.3,797.6,2183,796.5,2177.5,799.3z"/>
						<path class="st26" d="M2282.6,726L2282.6,726c4.5,2.3,6.8,7,5,10.4l0,0c-1.3,2.6-4.2,2-7.5,0.6l-1.7,3.3
							c-0.2,0.5-0.9,0.6-1.5,0.3l-3.2-1.6c-0.6-0.3-0.9-0.9-0.7-1.4l1.7-3.2c-3-1.8-4.9-3.7-3.5-6.3l0,0
							C2273,724.6,2278.1,723.7,2282.6,726z"/>
						<path class="st26" d="M2218.2,781.5L2218.2,781.5c4.5,2.3,6.8,7,5,10.4l0,0c-1.3,2.6-4.2,2-7.5,0.6l-1.7,3.3
							c-0.2,0.5-0.9,0.6-1.5,0.3l-3.2-1.6c-0.6-0.3-0.9-0.9-0.7-1.4l1.7-3.2c-3-1.8-4.9-3.7-3.5-6.3l0,0
							C2208.6,780.1,2213.7,779.2,2218.2,781.5z"/>
						<path class="st26" d="M2180,746L2180,746c-4.5,2.3-6.8,7-5,10.4l0,0c1.3,2.6,4.2,2,7.5,0.6l1.7,3.3c0.2,0.5,0.9,0.6,1.5,0.3
							l3.2-1.6c0.6-0.3,0.9-0.9,0.7-1.4l-1.7-3.2c3-1.8,4.9-3.7,3.5-6.3l0,0C2189.7,744.6,2184.6,743.7,2180,746z"/>
					</g>
				</g>
				<g>
					<path class="st32" d="M2376.5,776.5l-103.4-5.8l-14.1-8v7.2l80.7,59.9c24.4-13,40.7-31.8,43.7-52.9v-7.2L2376.5,776.5z"/>
					<path class="st34" d="M2383.3,769.7c-3,21.2-19.3,39.9-43.7,52.9l-36.6-27.1l-7.6-5.6l0,0l-36.5-27.1L2383.3,769.7z"/>
					<g>
						<path class="st12" d="M2300.3,775.6c0,2.4-2.5,4.4-5.6,4.4c-3.1,0-5.6-2-5.6-4.4c0-2.4,2.5-4.4,5.6-4.4
							C2297.8,771.2,2300.3,773.2,2300.3,775.6z"/>
						<path class="st12" d="M2306.3,791.5c0,1.8-1.3,3.2-3.2,3.9l-7.6-5.6c0.9-1.6,2.9-2.7,5.2-2.7
							C2303.7,787.2,2306.3,789.1,2306.3,791.5z"/>
						<path class="st12" d="M2326.4,792.5c0,1.2-1.3,2.2-2.8,2.2c-1.6,0-2.8-1-2.8-2.2c0-1.2,1.3-2.2,2.8-2.2
							C2325.1,790.3,2326.4,791.3,2326.4,792.5z"/>
						<path class="st12" d="M2341.5,780c0,1.2-1.3,2.2-2.8,2.2s-2.8-1-2.8-2.2c0-1.2,1.3-2.2,2.8-2.2S2341.5,778.8,2341.5,780z"/>
						<path class="st12" d="M2312.9,776.7c0,1.2-1.3,2.2-2.8,2.2c-1.6,0-2.8-1-2.8-2.2c0-1.2,1.3-2.2,2.8-2.2
							C2311.6,774.5,2312.9,775.5,2312.9,776.7z"/>
						<path class="st12" d="M2327.3,772.9c0,2-2.1,3.6-4.6,3.6c-2.6,0-4.6-1.6-4.6-3.6c0-2,2.1-3.6,4.6-3.6
							C2325.2,769.3,2327.3,770.9,2327.3,772.9z"/>
						<path class="st12" d="M2322.7,784.6c0,1.3-1.4,2.4-3.1,2.4s-3.1-1.1-3.1-2.4c0-1.3,1.4-2.4,3.1-2.4
							C2321.3,782.1,2322.7,783.2,2322.7,784.6z"/>
						<path class="st12" d="M2281.5,771.3c0,0.9-0.9,1.6-2.1,1.6c-1.1,0-2.1-0.7-2.1-1.6s0.9-1.6,2.1-1.6
							C2280.6,769.7,2281.5,770.4,2281.5,771.3z"/>
						<path class="st2" d="M2305.4,777c0,0-4,0-7.3,5.9C2298.1,782.9,2303.4,784.3,2305.4,777z"/>
						<path class="st2" d="M2352,782.5c0,0-3.1-5.3-7.4-5.1C2344.7,777.4,2348.2,785.5,2352,782.5z"/>
						<path class="st2" d="M2315.2,791.5c0,0-3.2-5.1-7.5-4.6C2307.8,786.9,2311.5,794.7,2315.2,791.5z"/>
						<path class="st2" d="M2339.7,796.7c0,0-4-1-7.6,4C2332.1,800.6,2337.3,803.4,2339.7,796.7z"/>
						<path class="st2" d="M2277.6,766.3c0,0-3.5-1.6-6.8,2.2C2270.8,768.6,2275.2,771.9,2277.6,766.3z"/>
					</g>
				</g>
			</g>
			<g>
				<g>
					<path class="st32" d="M1906.6,924.4c-37.8,5.5-72,10-96.1,26.1c-22.1,14.8-35.7,34.7-35.7,56.6c0,24.3,14.7,50.4,43.4,61.4
						c24.1,9.2,62.1,28.2,88.3,21.4c32.9-8.5,62.2-7.4,85.2-19.6l-10.7-7.9l-74.4-55.2l119.9,6.7l11.2,0.6c0.3-2.4,0.5-4.9,0.5-7.3
						c0-23.4-15.5-44.6-40.4-59.7C1974.2,933.2,1941.9,919.2,1906.6,924.4z"/>
					<path class="st33" d="M2026.6,1013.9l-119.9-6.7l74.4,55.2c-7.4,3.4-15.5,6.3-24.1,8.6c-15.3,4.1-33,1.3-50.3,6.4
						c-28.6,8.5-55.1-11-76.3-15.9c-22.8-5.3-46.7-33.1-44.1-54.3c2.7-22.1,18.2-47.6,45.9-55.2c20.8-5.6,48.3-18.7,76.4-18.7
						c22.8,0,42,11.5,60.4,13.8c34.8,4.3,58,34.6,58,60.1C2027.1,1009.4,2026.9,1011.6,2026.6,1013.9z"/>
					<g>
						<path class="st12" d="M1843.5,999.5c0,2.4-2.5,4.4-5.6,4.4c-3.1,0-5.6-2-5.6-4.4c0-2.4,2.5-4.4,5.6-4.4
							C1841,995.1,1843.5,997.1,1843.5,999.5z"/>
						<path class="st12" d="M1877.7,978.5c0,2.4-2.5,4.4-5.6,4.4c-3.1,0-5.6-2-5.6-4.4c0-2.4,2.5-4.4,5.6-4.4
							C1875.2,974.1,1877.7,976.1,1877.7,978.5z"/>
						<path class="st12" d="M1856.6,966.9c0,2-2.1,3.6-4.6,3.6s-4.6-1.6-4.6-3.6s2.1-3.6,4.6-3.6S1856.6,964.9,1856.6,966.9z"/>
						<path class="st12" d="M1898.6,958c0,2.2-2.3,4-5.2,4c-2.9,0-5.2-1.8-5.2-4s2.3-4,5.2-4C1896.3,954,1898.6,955.8,1898.6,958z"
							/>
						<path class="st12" d="M1898.6,999.5c0,3.5-3.7,6.3-8.2,6.3c-4.5,0-8.2-2.8-8.2-6.3c0-3.5,3.7-6.3,8.2-6.3
							C1894.9,993.2,1898.6,996,1898.6,999.5z"/>
						<path class="st12" d="M1916.3,976.4c0,2.4-2.5,4.4-5.6,4.4c-3.1,0-5.6-2-5.6-4.4c0-2.4,2.5-4.4,5.6-4.4
							C1913.8,972,1916.3,974,1916.3,976.4z"/>
						<path class="st12" d="M1942.4,978.6c0,1.2-1.3,2.2-2.8,2.2c-1.6,0-2.8-1-2.8-2.2c0-1.2,1.3-2.2,2.8-2.2
							C1941.1,976.4,1942.4,977.4,1942.4,978.6z"/>
						<path class="st12" d="M1930.5,959.8c0,1.2-1.3,2.2-2.8,2.2c-1.6,0-2.8-1-2.8-2.2c0-1.2,1.3-2.2,2.8-2.2
							C1929.3,957.6,1930.5,958.6,1930.5,959.8z"/>
						<path class="st12" d="M1898.6,1030.3c0,1.2-1.3,2.2-2.8,2.2c-1.6,0-2.8-1-2.8-2.2c0-1.2,1.3-2.2,2.8-2.2
							C1897.3,1028.1,1898.6,1029,1898.6,1030.3z"/>
						<path class="st12" d="M1917.9,1040.2c0,1.2-1.3,2.2-2.8,2.2c-1.6,0-2.8-1-2.8-2.2c0-1.2,1.3-2.2,2.8-2.2
							C1916.6,1038,1917.9,1039,1917.9,1040.2z"/>
						<ellipse class="st12" cx="1868.8" cy="1023" rx="6.4" ry="4.9"/>
						<path class="st2" d="M1838.7,1024.3c0,0-4.2-2.1-8.2,2.2C1830.5,1026.5,1835.7,1030.8,1838.7,1024.3z"/>
						<path class="st2" d="M1870.8,993.1c0,0-5.6-2.9-11.1,2.9C1859.7,996,1866.8,1001.8,1870.8,993.1z"/>
						<path class="st2" d="M1931.7,976.5c0,0-5.8,0-10.4,8.5C1921.3,984.9,1928.9,987,1931.7,976.5z"/>
						<path class="st2" d="M1958.8,982.8c0,0-4.9-6.3-11-4.1C1947.7,978.6,1953.7,988.6,1958.8,982.8z"/>
						<path class="st2" d="M1915.4,1000.7c0,0-2.7-8.3-7.8-10.9C1907.6,989.8,1910.5,1001.6,1915.4,1000.7z"/>
						<path class="st2" d="M1905.8,1012.5c0,0-4.9-0.7-9.1,5.8C1896.8,1018.3,1903.2,1021,1905.8,1012.5z"/>
						<path class="st2" d="M1910.5,1049.5c0,0-4-5.7-9.2-4.5C1901.2,1045.1,1906,1054,1910.5,1049.5z"/>
						<path class="st2" d="M1917.6,1024.7c0,0-4.9-0.4-9,6.4C1908.7,1031,1915.1,1033.3,1917.6,1024.7z"/>
						<path class="st2" d="M1895.1,978.8c0,0-4.8-2.2-9.4,2.9C1885.7,981.7,1891.8,986.4,1895.1,978.8z"/>
						<path class="st2" d="M1882.8,968c0,0-3.7-6.7-8.9-6.6C1873.9,961.3,1878.1,971.4,1882.8,968z"/>
						<path class="st26" d="M1846.3,1029.8L1846.3,1029.8c-5.5,2.8-8.3,8.6-6.2,12.8l0,0c1.6,3.1,5.2,2.5,9.2,0.7l2,4
							c0.3,0.6,1.1,0.7,1.8,0.3l3.9-2c0.7-0.4,1.1-1.1,0.8-1.7l-2-4c3.7-2.2,6-4.5,4.3-7.7l0,0
							C1858.1,1028,1851.8,1026.9,1846.3,1029.8z"/>
						<path class="st26" d="M1951.4,956.4L1951.4,956.4c4.5,2.3,6.8,7,5,10.4l0,0c-1.3,2.6-4.2,2-7.5,0.6l-1.7,3.3
							c-0.2,0.5-0.9,0.6-1.5,0.3l-3.2-1.6c-0.6-0.3-0.9-0.9-0.7-1.4l1.7-3.2c-3-1.8-4.9-3.7-3.5-6.3l0,0
							C1941.8,955,1946.9,954.1,1951.4,956.4z"/>
						<path class="st26" d="M1887,1011.9L1887,1011.9c4.5,2.3,6.8,7,5,10.4l0,0c-1.3,2.6-4.2,2-7.5,0.6l-1.7,3.3
							c-0.2,0.5-0.9,0.6-1.5,0.3l-3.2-1.6c-0.6-0.3-0.9-0.9-0.7-1.4l1.7-3.2c-3-1.8-4.9-3.7-3.5-6.3l0,0
							C1877.4,1010.5,1882.5,1009.6,1887,1011.9z"/>
						<path class="st26" d="M1848.9,976.4L1848.9,976.4c-4.5,2.3-6.8,7-5,10.4l0,0c1.3,2.6,4.2,2,7.5,0.6l1.7,3.3
							c0.2,0.5,0.9,0.6,1.5,0.3l3.2-1.6c0.6-0.3,0.9-0.9,0.7-1.4l-1.7-3.2c3-1.8,4.9-3.7,3.5-6.3l0,0
							C1858.5,975,1853.4,974.1,1848.9,976.4z"/>
					</g>
				</g>
				<g>
					<path class="st32" d="M2045.3,1006.9l-103.4-5.8l-14.1-8v7.2l80.7,59.9c24.4-13,40.7-31.8,43.7-52.9v-7.2L2045.3,1006.9z"/>
					<path class="st34" d="M2052.1,1000.1c-3,21.2-19.3,39.9-43.7,52.9l-36.6-27.1l-7.6-5.6l0,0l-36.5-27.1L2052.1,1000.1z"/>
					<g>
						<ellipse class="st12" cx="1963.5" cy="1006" rx="5.6" ry="4.4"/>
						<path class="st12" d="M1975.1,1021.9c0,1.8-1.3,3.2-3.2,3.9l-7.6-5.6c0.9-1.6,2.9-2.7,5.2-2.7
							C1972.5,1017.5,1975.1,1019.5,1975.1,1021.9z"/>
						<ellipse class="st12" cx="1992.4" cy="1022.9" rx="2.8" ry="2.2"/>
						<ellipse class="st12" cx="2007.5" cy="1010.4" rx="2.8" ry="2.2"/>
						<path class="st12" d="M1981.7,1007.1c0,1.2-1.3,2.2-2.8,2.2c-1.6,0-2.8-1-2.8-2.2c0-1.2,1.3-2.2,2.8-2.2
							C1980.4,1004.9,1981.7,1005.9,1981.7,1007.1z"/>
						<path class="st12" d="M1996.1,1003.3c0,2-2.1,3.6-4.6,3.6s-4.6-1.6-4.6-3.6s2.1-3.6,4.6-3.6S1996.1,1001.3,1996.1,1003.3z"/>
						<path class="st12" d="M1991.5,1015c0,1.3-1.4,2.4-3.1,2.4s-3.1-1.1-3.1-2.4c0-1.4,1.4-2.4,3.1-2.4
							C1990.1,1012.5,1991.5,1013.6,1991.5,1015z"/>
						<path class="st12" d="M1950.3,1001.7c0,0.9-0.9,1.6-2.1,1.6s-2.1-0.7-2.1-1.6s0.9-1.6,2.1-1.6S1950.3,1000.8,1950.3,1001.7z"
							/>
						<path class="st2" d="M1974.2,1007.4c0,0-4,0-7.3,5.9C1966.9,1013.3,1972.2,1014.7,1974.2,1007.4z"/>
						<path class="st2" d="M2020.8,1012.9c0,0-3.1-5.3-7.4-5.1C2013.5,1007.8,2017,1015.9,2020.8,1012.9z"/>
						<path class="st2" d="M1984,1021.9c0,0-3.2-5.1-7.5-4.6C1976.6,1017.3,1980.3,1025.1,1984,1021.9z"/>
						<path class="st2" d="M2008.4,1027.1c0,0-4-1-7.6,4C2000.9,1031,2006.1,1033.8,2008.4,1027.1z"/>
						<path class="st2" d="M1946.4,996.8c0,0-3.5-1.6-6.8,2.2C1939.6,999,1944,1002.3,1946.4,996.8z"/>
					</g>
				</g>
			</g>
			<path class="st32" d="M2462,1533.3c0,0-16.4,8-21,18c-4.6,10-23,6.6-31.3,12.9s-16.7,25.5-39.2,25.2v4.2l9.1,3.6
				c0,0,61.2-17.3,69.6-24.1c8.4-6.7,28.4-24.3,28.4-24.3l2.8-15L2462,1533.3z"/>
			<path class="st17" d="M2107.1,1952.6h-178.3c-4,0-7.3-3.3-7.3-7.4l0,0c0-4.1,3.3-7.4,7.3-7.4h178.3c4,0,7.3,3.3,7.3,7.4l0,0
				C2114.4,1949.3,2111.1,1952.6,2107.1,1952.6z"/>
			<path class="st17" d="M2107.1,1918h-178.3c-4,0-7.3-3.3-7.3-7.4l0,0c0-4.1,3.3-7.4,7.3-7.4h178.3c4,0,7.3,3.3,7.3,7.4l0,0
				C2114.4,1914.7,2111.1,1918,2107.1,1918z"/>
			<g>
				<path class="st26" d="M2008.5,746.3h-207c-4.4,0-7.9-3.6-7.9-8.1l0,0c0-4.4,3.6-8.1,7.9-8.1h207c4.4,0,7.9,3.6,7.9,8.1l0,0
					C2016.4,742.7,2012.9,746.3,2008.5,746.3z"/>
				<path class="st26" d="M2008.5,779.3h-207c-4.4,0-7.9-3.6-7.9-8.1l0,0c0-4.4,3.6-8.1,7.9-8.1h207c4.4,0,7.9,3.6,7.9,8.1l0,0
					C2016.4,775.7,2012.9,779.3,2008.5,779.3z"/>
				<path class="st26" d="M2008.5,812.3h-207c-4.4,0-7.9-3.6-7.9-8.1l0,0c0-4.4,3.6-8.1,7.9-8.1h207c4.4,0,7.9,3.6,7.9,8.1l0,0
					C2016.4,808.7,2012.9,812.3,2008.5,812.3z"/>
			</g>
			<g>
				<path class="st26" d="M2362.4,510.9h-207c-4.4,0-7.9-3.6-7.9-8.1l0,0c0-4.4,3.6-8.1,7.9-8.1h207c4.4,0,7.9,3.6,7.9,8.1l0,0
					C2370.4,507.3,2366.8,510.9,2362.4,510.9z"/>
				<path class="st26" d="M2362.4,543.9h-207c-4.4,0-7.9-3.6-7.9-8.1l0,0c0-4.4,3.6-8.1,7.9-8.1h207c4.4,0,7.9,3.6,7.9,8.1l0,0
					C2370.4,540.3,2366.8,543.9,2362.4,543.9z"/>
				<path class="st26" d="M2362.4,576.9h-207c-4.4,0-7.9-3.6-7.9-8.1l0,0c0-4.4,3.6-8.1,7.9-8.1h207c4.4,0,7.9,3.6,7.9,8.1l0,0
					C2370.4,573.3,2366.8,576.9,2362.4,576.9z"/>
			</g>
			<g>
				<path class="st26" d="M2362.4,979h-207c-4.4,0-7.9-3.6-7.9-8.1l0,0c0-4.4,3.6-8.1,7.9-8.1h207c4.4,0,7.9,3.6,7.9,8.1l0,0
					C2370.4,975.3,2366.8,979,2362.4,979z"/>
				<path class="st26" d="M2362.4,1012h-207c-4.4,0-7.9-3.6-7.9-8.1l0,0c0-4.4,3.6-8.1,7.9-8.1h207c4.4,0,7.9,3.6,7.9,8.1l0,0
					C2370.4,1008.3,2366.8,1012,2362.4,1012z"/>
				<path class="st26" d="M2362.4,1044.9h-207c-4.4,0-7.9-3.6-7.9-8.1l0,0c0-4.4,3.6-8.1,7.9-8.1h207c4.4,0,7.9,3.6,7.9,8.1l0,0
					C2370.4,1041.3,2366.8,1044.9,2362.4,1044.9z"/>
			</g>
			<path class="st26" d="M2928.5,1003.9h-198.2c-32.6,0-59.3-27.1-59.3-60.2l0,0c0-33.1,26.7-60.2,59.3-60.2h198.2
				c32.6,0,59.3,27.1,59.3,60.2l0,0C2987.8,976.8,2961.1,1003.9,2928.5,1003.9z"/>
			<path class="st15" d="M2791.5,926.4c0,0,37.6,53.5,37.5,51.5c-0.1-2,38.3-76,38.3-76l-44.3,43.6L2791.5,926.4z"/>
			<polygon class="st24" points="2203.7,1662.5 2076.5,1693.8 2036.9,1676.6 2160.2,1647.6 			"/>
			<path class="st35" d="M4484,2482.3H29.6c-0.1,0-0.2-0.1-0.2-0.2v-13.4c0-0.1,0.1-0.2,0.2-0.2H4484c0.1,0,0.2,0.1,0.2,0.2v13.4
				C4484.2,2482.2,4484.1,2482.3,4484,2482.3z"/>
		</g>
	</g>
</g>
</svg>
