<?xml version="1.0" encoding="utf-8"?>
<!-- Generator: Adobe Illustrator 24.2.3, SVG Export Plug-In . SVG Version: 6.00 Build 0)  -->
<svg version="1.1" id="_x3C_Layer_x3E_" xmlns="http://www.w3.org/2000/svg" xmlns:xlink="http://www.w3.org/1999/xlink" x="0px"
	 y="0px" viewBox="0 0 2848 1780" style="enable-background:new 0 0 2848 1780;" xml:space="preserve">
<style type="text/css">
	.st0{fill:#FFF8F8;}
	.st1{fill:#D2E4FF;}
	.st2{fill:#C3DAFC;}
	.st3{fill:#EBF3FA;}
	.st4{fill:#2E3552;}
	.st5{fill:#233862;}
	.st6{fill:#163560;}
	.st7{fill:#B5453C;}
	.st8{fill:#F4A269;}
	.st9{fill:#F99746;}
	.st10{fill:#FFB27D;}
	.st11{fill:#ED7D2B;}
	.st12{fill:#1C468A;}
	.st13{fill:#ED985F;}
	.st14{fill:#C6601A;}
	.st15{fill:#F1A34F;}
	.st16{fill:#D3671E;}
	.st17{fill:#B25618;}
	.st18{fill:#E78B37;}
	.st19{fill:#BDD8FF;}
	.st20{fill:#9FC1F4;}
	.st21{fill:#6A9AD3;}
	.st22{fill:#5588BC;}
	.st23{fill:#77A4E5;}
	.st24{fill:#AFCDFB;}
</style>
<rect y="11.5" class="st0" width="2848" height="1780"/>
<g>
	<path class="st1" d="M2645.5,1283.3c0.1,13.6-0.7,27.1-2.3,40.5c-2.6,22.3-7.6,44.2-15.1,65.2c-5.2,14.8-11.7,29.1-19.4,42.8
		c-2.2,3.9-4.6,7.8-7,11.6H245.4c0,0-214.6-491.4,77.8-729.4c3.7-3,7.3-5.9,11-8.7c3.4-2.6,6.8-5.2,10.2-7.7c3.3-2.5,6.7-4.9,10-7.2
		c88.1-62.2,184.6-93,285.8-112.1c3.6-0.7,7.1-1.3,10.7-2c3.4-0.6,6.8-1.2,10.2-1.8c82.1-14.1,167-21.6,253-32.7
		c29.9-3.9,60-8.1,90-13.3c120.4-20.7,241.4-55.3,358-132c36.8-24.2,73.9-43.8,110.8-59.2c2.5-1.1,5.1-2.1,7.6-3.1
		c2.5-1,5-2,7.5-2.9c73.1-28.3,145.4-40.6,213.3-40.4c2.7,0,5.3,0,8,0.1c2.5,0,5.1,0.1,7.6,0.2c21.6,0.7,42.6,2.6,63.1,5.6
		c8.6,1.3,17.1,2.7,25.4,4.4c12.3,2.4,24.3,5.3,36.1,8.5c151.3,41.5,258.4,145.8,264.5,253.6c4.1,72.7,12.8,142.5,31.9,203.1
		c8.8,28.1,19.9,54.1,33.9,77.6c3.8,6.4,7.8,12.6,12,18.6c41.7,59,105,97.9,201.5,104.4c67.1,4.5,123.6,34.6,166.6,79
		c0.4,0.4,0.8,0.8,1.2,1.3C2611.9,1108.6,2645.1,1196.8,2645.5,1283.3z"/>
	<path class="st2" d="M1418,1133.9c-2.5-19.2-32.3-25.6-39-30.4c-4-2.9-13.4-15.7-19.8-25c0.9-0.6,1.4-1,1.4-1
		c-18.8-57.9-34.4-105.3-47.2-144.1c1.5-2.9,3-7.4,4.1-14c4.6-26.7-18.6-36.8-18.6-36.8c-0.1-0.1-0.2-0.1-0.4-0.2
		c13.9-116.7-19.5-124.6-19.5-124.6s-12-4.1-26.5-2.2c-4.9-11.9-14.8-19.1-31-20.1c-4.9-0.3-10.2,0.8-15.9,3.1
		c0.8-1.3,1.5-2.7,2.2-4c3.4-2.3,31.9-22.9,29.4-47.5c-0.5-4.9-1.5-8.6-2.9-11.4c-0.4-2-0.9-3.9-1.5-5.6c2.5-12.4,2.7-22.5-0.2-28.2
		c-5.3-10.5-15.1-17.9-22.5-22.2c3.1-0.7,7.2,1.1,7.2,1.1c-4-3.6-16.8-5.8-16.8-5.8c-45.5-64.8-115.7,19.1-128.5,41
		c-12.8,21.9-28.8,46.1-72.1,44.4c-85.1-3.4-90.5,82.3-73.1,126.1c0.2,0.6,42,74.5,42,74.5c0.8-1.4,2.1-3.3,3.8-5.4
		c-2.9,30.8-58.2,56.1-62.9,63.2c-9.9,14.9-56.6,103.3-16.2,144.6c-31.9-10.5-77,28.7-82.4,33.6h-0.5v305.9h433.6v0H1434v-80.3
		v-225.7C1429.3,1135.7,1423.9,1134.8,1418,1133.9z M1163,1080.1c3.8-5.7,17.8-32,35-67.1c-0.5,35.3-0.7,60.8-0.7,60.8
		c-0.5,5,1.3,8.7,4.5,11.4c-2,4.5-4.4,8.9-6.3,13.1c-2.1,4.7-3,10.1-3.4,14.8c-32.1-1.5-56.5-1.8-64.5-0.3c-1.4,0.3-3.1,0.5-4.9,0.8
		C1141.9,1104.7,1155.1,1092,1163,1080.1z M1294.4,1120.1c-7.2-13.1-31.6-11.9-37.2-16.6c-4.3-3.6-7.2-7.4-9.1-11.1
		c1.7-0.2,2.7-0.3,2.7-0.3c7.3-24.4,13.6-47,19.1-68c21,35.2,38.3,61.3,38.3,61.3c2.1,5.2,5.9,7.7,10.6,8.4
		c-0.3,1.5-0.8,3.1-1.5,4.7c-3.6,8.1-3.7,17.8-3.4,23.4C1307.4,1121.2,1300.9,1120.7,1294.4,1120.1z"/>
	<path class="st3" d="M2672.9,1282.5c-0.1,13.6-0.8,27.1-2.3,40.5c-2.1,19.5-5.6,38.6-10.7,57.2c-1.4,5-2.8,10-4.4,15
		c-5.2,16.4-11.7,32.2-19.4,47.4h-803.1V300.4c12.3,2.4,24.3,5.3,36.1,8.5c14.4,3.9,28.3,8.5,41.9,13.5
		c83.8,31.1,150.4,82,188.3,140.6c20.4,31.6,32.5,65.4,34.4,99.5c4.1,72.7,12.8,142.5,31.9,203.1c8.8,28.1,19.9,54.1,33.9,77.6
		c3.8,6.4,7.8,12.6,12,18.6c41.7,59,105,97.9,201.5,104.4c67.1,4.5,123.6,34.6,166.6,79c0.4,0.4,0.8,0.8,1.2,1.3
		C2639.3,1107.8,2672.6,1196,2672.9,1282.5z"/>
	<path class="st4" d="M2775.4,1449.7H90.5c-1.7,0-3-1.4-3-3v-1c0-1.7,1.4-3-51-3h2684.9c55.7,0,57,1.4,57,3v1
		C2778.4,1448.4,2777.1,1449.7,2775.4,1449.7z"/>
	<g>
		<path class="st5" d="M1738.4,1089.2l-118.9-9.3c0,0-2.8-18.1,3.4-31.9c6-13.2-2.2-22.7-10.4-38.4c7.6,7.8,33.6,6.6,50.8,4.3
			c2.1,3.4,23.3,34.8,30.3,39.9C1701.3,1059.4,1736,1066.7,1738.4,1089.2z"/>
		<path class="st5" d="M1598.7,1079.9h-118.9c0,0-2.8-18.1,3.4-31.9c6-13.2,16.3-27.3,8.2-43.1c7.6,7.8,31.4,6.9,48.6,4.6
			c2.1,3.4-8,25.7,13.9,44.2C1561.2,1060,1596.3,1057.4,1598.7,1079.9z"/>
		<path class="st6" d="M1579,657.4c0,0-56.6-19.3-78.3,38.2c-103.7,84-252,298.5-264.5,313.5c-25.1,30-5.7,71.8,96.8,70.8
			c59.9-0.6,96.6-28.1,113-52.8c4.4-6.6,20.5-36.6,40.2-76.9c-0.6,40.4-0.8,69.7-0.8,69.7c-3.1,28.7,61.3,20.8,61.3,20.8
			C1655.8,675.6,1579,657.4,1579,657.4z"/>
		<path class="st7" d="M1525.9,524.4c-6-12.1-17.3-20.5-25.8-25.5c3.6-0.8,8.2,1.2,8.2,1.2c-4.6-4.1-19.2-6.7-19.2-6.7
			c-52.2-74.3-132.7,21.9-147.4,47c-14.7,25.1-33.1,52.9-82.7,50.9c-97.6-3.8-97.5,92.2-83.8,144.6c7.2,27.7,51,92.4,51,92.4
			c11.3-20.6,109.7-115.2,177.1-114.5c22.6-9.1,46.6-36.1,48.4-38.2c-17.7,22.2-30.6,32.7-39.1,37.7
			C1476.8,703.3,1541.9,556.3,1525.9,524.4z"/>
		<path class="st8" d="M1407.5,713.7c0.2,0.2-8.8,33.5-35.8,18.9c-17.7-9.6-46.2-50.5-35.2-64.3c5.2-6.6,28.2-19.1,52.1-61.5
			l2.9,2.5l48.3,41.8c0,0-11,16.4-20.2,32.5C1411.7,697.2,1405.2,710.5,1407.5,713.7z"/>
		<path class="st7" d="M1389.6,598.9c0,0,0.9-34.3,11.1-57.4c7.2-16.5,51.3-66,100.9-21.4c0,0,14.9,12.2,23.1,32.4
			c6.5,16,12.1,44.9-39,79.6l-15.8,12.7L1389.6,598.9z"/>
		<path class="st9" d="M1324.7,650.2c0,0,17.7,3.4,25.2-6.7c7.5-10.1,23.8-31.3,27.6-19.1c3.8,12.2,39.8,47.7,48.2,48.6
			c8.3,0.9,14.2,3.3,9.5,7.6c-4.7,4.3-2.7,21.6-7.5,23.2C1423,705.4,1335.5,649.3,1324.7,650.2z"/>
		<path class="st10" d="M1436.2,674.5c0,0-69.6-45-40.9-88c28.7-42.9,39.1-77.7,84.7-50.7c45.7,26.9,43.3,49,37.2,65.7
			C1511.1,618.1,1455.1,685.1,1436.2,674.5z"/>
		<path class="st9" d="M1439.7,709.3c0,0-117.9-86.9-159.2-54.2c-60.9,48.3-48.7,211.3-62.8,232.5c-14.1,21.2-93.8,173.3,35.8,188.8
			c129.6,15.5,159.4-66.2,165.3-127.5C1424.6,887.6,1439.7,709.3,1439.7,709.3z"/>
		<path class="st11" d="M1284.5,708.2c0,0-34,187.7,33.3,239C1385.1,998.5,1419,702.4,1284.5,708.2z"/>
		<path class="st11" d="M1352.2,678.2c0,0,1.3-21.9,20.6-13.5c19.4,8.4,55.2,21,69,15.8s-22.3,64.2-55.3,41
			C1353.5,698.2,1352.2,678.2,1352.2,678.2z"/>
		<path class="st7" d="M1512.1,555.7c0,0-52.6,37.7-86.5,25.7c-33.9-12-41.3-28.1-41.3-28.1s34-2.8,59.3-30.5
			C1443.6,522.9,1513.9,522.2,1512.1,555.7z"/>
		<path class="st10" d="M1601.8,800.5c0,0,26.7,11.6,21.4,42.2c-5.3,30.6-15.9,20.4-15.9,20.4L1601.8,800.5z"/>
		<path class="st7" d="M1504.7,556.7c0,0,6.6,20.7,2.7,33.9c-3.9,13.2-17.4,36.8-10.3,40.4c0,0,37.1-24.7,34.1-54.8
			C1528,544.4,1504.7,556.7,1504.7,556.7z"/>
		<path class="st12" d="M1549.6,657.4C1549.6,657.4,1549.6,657.4,1549.6,657.4c-5.3-15.1-16.8-24.4-36.5-25.5
			c-86.4-4.9-294.3,358.4-310,377.2c-25.1,30-5.7,71.8,96.8,70.8c59.9-0.6,83.6-29.3,100-54c7.5-11.3,62-97.9,103.9-187
			c35.1,83.7,108.7,194.1,108.7,194.1c10.9,26.7,60-8.9,60-8.9C1554.8,662.2,1549.6,657.4,1549.6,657.4z"/>
		<path class="st13" d="M1274.7,668.4c0,0-31.1,48,65.5,92c96.6,44,108,54.8,126.8,58.7c29.4,6.1,142.1,5.3,142.1,5.3
			s3-17.9-7.4-23.9c-16.6-9.7-112.7-25.4-125.6-30.6S1325.2,616.4,1274.7,668.4z"/>
		<path class="st9" d="M1302.1,647.8c0,0,49.3,2,152.3,96.8c0,0,15.8,19.1,23.6,20.4c7.8,1.3,29.1,6.9,29.5,12.3
			c0.5,5.4-26.1,73.1-60,75.1c-33.9,1.9-197-118.7-185.9-157.9C1272.8,655.3,1302.1,647.8,1302.1,647.8z"/>
	</g>
	<g>
		<rect x="1103.9" y="1091.9" class="st14" width="435.2" height="350.7"/>
		<rect x="1362.9" y="1091.9" class="st15" width="393.8" height="350.7"/>
		<g>
			<path class="st16" d="M1428.5,1159.3c0-3.9,3.2-7,7.2-7c4,0,7.2,3.1,7.2,7s-3.2,7-7.2,7
				C1431.7,1166.3,1428.5,1163.2,1428.5,1159.3z"/>
			<path class="st16" d="M1693.3,1159.3c0-3.9,3.2-7,7.2-7s7.2,3.1,7.2,7s-3.2,7-7.2,7S1693.3,1163.2,1693.3,1159.3z"/>
			<path class="st16" d="M1428.5,1380.3c0-3.9,3.2-7,7.2-7c4,0,7.2,3.1,7.2,7c0,3.9-3.2,7-7.2,7
				C1431.7,1387.2,1428.5,1384.1,1428.5,1380.3z"/>
			<path class="st16" d="M1693.3,1380.3c0-3.9,3.2-7,7.2-7s7.2,3.1,7.2,7c0,3.9-3.2,7-7.2,7S1693.3,1384.1,1693.3,1380.3z"/>
		</g>
		<g>
			<path class="st17" d="M1144.8,1159.3c0-3.9,2-7,4.5-7c2.5,0,4.5,3.1,4.5,7s-2,7-4.5,7C1146.8,1166.3,1144.8,1163.2,1144.8,1159.3
				z"/>
			<path class="st17" d="M1308.9,1159.3c0-3.9,2-7,4.5-7c2.5,0,4.5,3.1,4.5,7s-2,7-4.5,7C1310.9,1166.3,1308.9,1163.2,1308.9,1159.3
				z"/>
			<path class="st17" d="M1144.8,1380.3c0-3.9,2-7,4.5-7c2.5,0,4.5,3.1,4.5,7c0,3.9-2,7-4.5,7
				C1146.8,1387.2,1144.8,1384.1,1144.8,1380.3z"/>
			<path class="st17" d="M1308.9,1380.3c0-3.9,2-7,4.5-7c2.5,0,4.5,3.1,4.5,7c0,3.9-2,7-4.5,7
				C1310.9,1387.2,1308.9,1384.1,1308.9,1380.3z"/>
		</g>
		<path class="st16" d="M1103.9,1092.4c0,0,59.1-54.6,98.2-38c51.4,21.9,172.8,15.8,203.4,10.2c30.6-5.7,270,11.2,351.2,27.2
			L1103.9,1092.4z"/>
		<path class="st18" d="M1756.7,1350.6v92h-393.8v-350.7h66.1l1.3,0.6C1430.3,1092.4,1465.6,1330.3,1756.7,1350.6z"/>
	</g>
	<g>
		<g>
			<path class="st19" d="M678.4,575.5v245.8H371.9V696.8c-3.4,2.5-6.8,5.1-10.2,7.7v126.9h327V573.6
				C685.2,574.2,681.8,574.8,678.4,575.5z"/>
		</g>
		<path class="st19" d="M667.7,577.4v233H381.9V689.5C470,627.3,566.5,596.5,667.7,577.4z"/>
	</g>
	<g>
		<g>
			<path class="st19" d="M1736.9,290.2v114.4h-228.8v-71.2c-2.5,1-5.1,2.1-7.6,3.1v75.7h244V290.4
				C1742,290.3,1739.4,290.2,1736.9,290.2z"/>
		</g>
		<path class="st19" d="M1728.9,290.1v106.4h-213.3v-66.1C1588.7,302.1,1661,289.9,1728.9,290.1z"/>
	</g>
	<path class="st20" d="M2581.6,1407.5c0,0,46.7-248.9-13.5-253.7C2507.9,1148.9,2581.6,1407.5,2581.6,1407.5z"/>
	<path class="st20" d="M2573.3,1413.3c0,0-88.1-160.8-138.3-154.9S2573.3,1413.3,2573.3,1413.3z"/>
	<path class="st2" d="M794.1,948.7c-12.5-50.3-90.6-34.5-90.6-34.5s-107,87.9-122.4,90c-15.4,2.1,85.8-84.8,85.8-84.8
		c-29.9-3.1-160,36.6-160,36.6s4.8,102.6-10.6,100.5s0-91.1,0-91.1c-28.9,9.4-55.9,46.1-55.9,46.1c-33.7,59.7,38.6,103.6,38.6,103.6
		s1,35.6-19.3,76.4c0,0-25.4,42-17.3,96.3h-22.4c4.3-39.1-13.7-68.7-13.7-68.7c-15.4-31-14.6-58-14.6-58s54.8-33.4,29.2-78.6
		c0,0-20.5-27.8-42.4-34.9c0,0,11.7,67.5,0,69.1c-11.7,1.6-8-76.2-8-76.2s-57.8-30.2-80.4-27.8c0,0,35.8,65.9,24.1,64.3
		c-11.7-1.6-51.9-68.3-51.9-68.3s-59.2-11.9-68.7,26.2c-9.5,38.1,5.9,57.2,14.6,59.6c8.8,2.4,65.1,1.6,63.6,9.5
		c-1.5,7.9-39.5,20.7-60.7,13.5c0,0,23.4,62.7,54.1,59.6c30.7-3.2,40.2-23.8,59.2-25.4c19-1.6,32.9,4,23.4,9.5
		c-9.5,5.6-41.7,1.8-57,16c-15.4,14.2-27.8,22.9,0.7,29.3c28.5,6.4,79.7,2.4,89.9-21.4c0.4-1,0.9-2,1.3-3c-0.6,2-1.3,3-1.3,3
		c5.3,3.3,13.1,19.2,18.6,31.4c0.8,2.1,2,4.9,3.8,8.8c0,0,0,0,0,0c0.7,1.8,1.3,3.2,1.7,4.2c6.3,17.2,6.6,42.2,5.9,58.4h-24.2h-35.2
		h-21.9v4.7h4.7c1.6,57.3,32.1,106.8,76.2,131.8h-54.8c-9.3,0-16.8,8.2-16.8,18.3h273.3c0-10.1-7.5-18.3-16.8-18.3h-54.1
		c44.1-25,74.6-74.4,76.2-131.8h3.3v-4.7H470.3c3.4-8.2,7.6-16.2,12.5-22.1c0.6-0.7,1.5-1.6,2.5-2.8c2.5-2.5,4.2-4.4,5.4-5.7
		c7.6-7.9,18.1-18,23.2-19c0,0-0.3-1-0.2-2.8c0.1,0.9,0.1,1.8,0.2,2.8c1.7,22.1,41.2,41.4,65.4,45.3c24.3,4,16.8-6.9,8.4-22.9
		c-8.4-16.1-34.8-23.2-40.8-30.6c-6-7.4,6.4-7.4,21.1-0.2c14.6,7.3,16.6,26.6,40.1,38.8c23.5,12.2,58.7-30.1,58.7-30.1
		c-18.7-1-45.4-23.1-44.4-29.8c1-6.7,45.3,11.6,52.9,12.5s24.8-9.4,27.5-42.5c2.7-33.2-47.4-42.4-47.4-42.4s-11.5,9.3-24.6,18.7
		c-2.6-3.6-6.8-7.6-11.6-12.1c4.3-4.1,8.2-7.7,10.6-9.9c4.8,1.4,10.1,2.5,15.9,3.1c40.5,4.2,71.3-78.5,71.3-78.5
		c-28,9.4-78.1-7.3-80-17.8c-1.9-10.5,72.3-9.4,83.9-12.6C732.4,1024,806.6,998.9,794.1,948.7z M534.5,1185
		c-2.3-1.3-2.1-5.6-0.7-11.3c3.2,0.8,6.5,1.5,9.8,2C540.2,1182.3,537,1186.4,534.5,1185z M485.1,1257.3c0,0-13.3,10.7-22.5,30.5H453
		c-1.2-20.8-1.6-57.9,7.5-82.6c0.5-1.3,1.3-3.2,2.3-5.6c2.4-5.1,4-8.9,5.1-11.7c7.2-16.1,17.6-37,24.6-41.4c0,0-0.9-1.3-1.7-3.9
		c0.5,1.3,1.1,2.6,1.7,3.9c1.7,4,4.3,7.6,7.6,10.8c-13.2,26.7,12.2,58.8,12.2,58.8S505.5,1237.7,485.1,1257.3z M591.6,1125.5
		c-20.7-6.2-45.7-5-54.9-10.4c-12.5-7.3,5.8-14.7,30.8-12.6c16.9,1.4,28.1,14.2,45.9,23.7C606.5,1125.6,598.8,1125.4,591.6,1125.5z"
		/>
	<g>
		<path class="st1" d="M2304.5,1245c-1.8,3-1.2,6.6,1.3,8c2.5,1.5,5.9,0.2,7.7-2.8s2.8-15.1,2.8-15.1S2306.3,1242,2304.5,1245z"/>
		<path class="st1" d="M2218.6,1190.5c-1.8,3-1.2,6.6,1.3,8c2.5,1.5,5.9,0.2,7.7-2.8c1.8-3,2.8-15.1,2.8-15.1
			S2220.4,1187.5,2218.6,1190.5z"/>
		<path class="st1" d="M2205.7,1288.9c-1.8,3-1.2,6.6,1.3,8.1c2.5,1.5,5.9,0.2,7.7-2.8c1.8-3,2.8-15.1,2.8-15.1
			S2207.5,1285.9,2205.7,1288.9z"/>
		<path class="st1" d="M2447.1,1111c-2,3.4-1.3,7.6,1.5,9.2c2.8,1.7,6.8,0.2,8.8-3.2c2-3.4,3.2-17.3,3.2-17.3
			S2449.1,1107.6,2447.1,1111z"/>
		<path class="st1" d="M2439.7,1195.1c-2,3.4-1.3,7.6,1.5,9.2c2.8,1.7,6.8,0.2,8.8-3.2c2-3.4,3.2-17.3,3.2-17.3
			S2441.8,1191.6,2439.7,1195.1z"/>
		<path class="st1" d="M2330.3,1123.5c-2,3.4-1.3,7.6,1.5,9.2c2.8,1.7,6.8,0.2,8.8-3.2c2-3.4,3.2-17.3,3.2-17.3
			S2332.3,1120.1,2330.3,1123.5z"/>
		<path class="st1" d="M2217,1072.6c-2.3,3.9-1.5,8.6,1.7,10.5c3.2,1.9,7.7,0.3,10-3.6c2.3-3.9,3.7-19.6,3.7-19.6
			S2219.3,1068.8,2217,1072.6z"/>
		<path class="st1" d="M2043.8,1059.4c-2.3,3.9-1.5,8.6,1.7,10.5c3.2,1.9,7.7,0.3,10-3.6c2.3-3.9,3.7-19.6,3.7-19.6
			S2046.1,1055.6,2043.8,1059.4z"/>
		<path class="st1" d="M2161,958.2c-2.3,3.9-1.5,8.6,1.7,10.5c3.2,1.9,7.7,0.3,10-3.6c2.3-3.9,3.7-19.6,3.7-19.6
			S2163.3,954.3,2161,958.2z"/>
		<path class="st1" d="M2065,935.8c-1.8,3.1-1.2,6.7,1.3,8.2c2.5,1.5,6,0.2,7.8-2.8c1.8-3.1,2.9-15.4,2.9-15.4
			S2066.7,932.7,2065,935.8z"/>
		<path class="st1" d="M2073.4,862.5c-1.8,3.1-1.2,6.7,1.3,8.2c2.5,1.5,6,0.2,7.8-2.8c1.8-3.1,2.9-15.4,2.9-15.4
			S2075.2,859.4,2073.4,862.5z"/>
		<path class="st1" d="M1991.4,967.4c-1.8,3.1-1.2,6.7,1.3,8.2c2.5,1.5,6,0.2,7.8-2.8c1.8-3.1,2.9-15.4,2.9-15.4
			S1993.1,964.4,1991.4,967.4z"/>
		<path class="st1" d="M2074.2,714.6c2.6-4.5,4.3-22.8,4.3-22.8s-15.1,10.3-17.8,14.8c-2.6,4.5-1.8,9.9,2,12.1
			C2066.4,721,2071.6,719.1,2074.2,714.6z"/>
		<path class="st1" d="M1990.6,600.3c-2.6,4.5-1.8,9.9,2,12.1c3.7,2.2,8.9,0.3,11.6-4.2c2.6-4.5,4.2-22.8,4.2-22.8
			S1993.3,595.8,1990.6,600.3z"/>
		<path class="st1" d="M1961.5,817.8c-2.6,4.5-1.8,9.9,2,12.1c3.7,2.2,8.9,0.3,11.6-4.2c2.6-4.5,4.2-22.8,4.2-22.8
			S1964.2,813.3,1961.5,817.8z"/>
	</g>
	<g>
		<g>
			<g>
				<path class="st21" d="M717.1,1191.2c0,0-41.6-48.5-2.6-79.3c0,0,28.5-17.2,51.7-15.8c0,0-32.9,55.2-22.3,60.7
					c10.6,5.5,32.2-64.1,32.2-64.1s64.8-6.3,85.7,3.7c0,0-55.4,45.4-43.7,48.1c11.7,2.7,71.5-41.8,71.5-41.8s60.3,10.3,57.1,47.1
					s-24,48.2-33.1,47.2c-9.1-1-62.6-21.4-63.8-13.9c-1.2,7.5,31,32,53.5,33.1c0,0-42.5,46.9-70.8,33.4c-28.3-13.5-30.7-35-48.3-43
					c-17.6-8-32.7-8-25.4,0.2c7.3,8.2,39.2,16.2,49.2,34c10.1,17.8,19.1,29.9-10.1,25.4s-76.8-25.8-78.9-50.3
					C717.1,1191.2,717.1,1191.2,717.1,1191.2z"/>
				<g>
					<path class="st22" d="M917.2,1150.6c0,0-163.9-6.3-200.1,40.6c0,0-8,24-32.6,45.8l-3.8,10.5c0,0,28.4-29.9,38.6-31.8
						C719.2,1215.7,703.3,1157.6,917.2,1150.6z"/>
					<path class="st22" d="M684.5,1237c0,0-35.2,26-37.6,72.5l6.4,0.6c0,0,11.2-48.1,31.5-66.9C705.1,1224.4,684.5,1237,684.5,1237z
						"/>
				</g>
			</g>
			<g>
				<path class="st23" d="M571.8,1130.2c0,0,66.1-37,35.3-87.3c0,0-24.7-30.9-51.1-38.8c0,0,14.1,74.9,0,76.7
					c-14.1,1.8-9.7-84.6-9.7-84.6s-69.6-33.5-97-30.9c0,0,43.2,73.2,29.1,71.4c-14.1-1.8-62.6-75.8-62.6-75.8s-71.4-13.2-82.9,29.1
					c-11.5,42.3,7.1,63.5,17.6,66.1c10.6,2.6,78.5,1.8,76.7,10.6c-1.8,8.8-47.6,22.9-73.2,15c0,0,28.2,69.6,65.2,66.1
					s48.5-26.4,71.4-28.2c22.9-1.8,39.7,4.4,28.2,10.6c-11.5,6.2-50.2,2-68.8,17.8c-18.5,15.7-33.5,25.4,0.9,32.5
					c34.4,7.1,96.1,2.6,108.4-23.8C571.8,1130.2,571.8,1130.2,571.8,1130.2z"/>
				<g>
					<path class="st21" d="M365.5,1003.2c0,0,185.1,59.9,206.3,126.9c0,0-0.9,30,17.6,64.4v13.2c0,0-19.4-45-30-51.1
						C559.5,1156.6,600.9,1098.5,365.5,1003.2z"/>
					<path class="st21" d="M589.5,1194.5c0,0,28.5,43.4,12.3,96.1l-7.3-2c0,0,7.1-58.1-7.8-87.4
						C571.6,1172.1,589.5,1194.5,589.5,1194.5z"/>
				</g>
			</g>
			<g>
				<path class="st20" d="M677,1079.1c0,0-87.2-48.8-46.5-115c0,0,86.5-40.7,121.4-51.1c0,0-72.6,98.8-54,101.1
					c18.6,2.3,66.8-111.6,66.8-111.6s91.8-44.2,127.8-40.7c0,0-110.9,96.5-92.3,94.1c18.6-2.3,136.5-99.9,136.5-99.9
					s94.1-17.4,109.2,38.3s-9.3,83.7-23.2,87.2c-13.9,3.5-157.4,2.3-155.1,13.9c2.3,11.6,116.8,30.2,150.5,19.8
					c0,0-91.2,91.8-140,87.2c-48.8-4.6-63.9-34.9-94.1-37.2c-30.2-2.3-52.3,5.8-37.2,13.9c15.1,8.1,66.2,2.7,90.6,23.4
					c24.4,20.7,44.2,33.5-1.2,42.8c-45.3,9.3-126.7,3.5-142.9-31.4C677,1079.1,677,1079.1,677,1079.1z"/>
				<g>
					<path class="st20" d="M1002.9,911.8c0,0-298,79-325.9,167.3c0,0,1.2,39.5-23.2,84.8v17.4c0,0,25.6-59.3,39.5-67.4
						C693.3,1114,692.7,1037.3,1002.9,911.8z"/>
					<path class="st20" d="M653.8,1164c0,0-37.6,57.1-16.2,126.7l9.7-2.6c0,0-9.4-76.6,10.3-115.2
						C677.2,1134.4,653.8,1164,653.8,1164z"/>
				</g>
			</g>
			<path class="st23" d="M674.1,1441.5c94.3,0,170.7-76.4,170.7-170.7H503.3C503.3,1365.1,579.8,1441.5,674.1,1441.5z"/>
			<path class="st24" d="M716.1,1440.2c-6.9,0.9-14,1.3-21.2,1.3c-94.3,0-170.7-76.4-170.7-170.7h42.4
				C566.6,1357.9,631.8,1429.8,716.1,1440.2z"/>
			<rect x="497.7" y="1270.8" class="st23" width="350.9" height="5.2"/>
		</g>
		<path class="st23" d="M838.4,1442.6H508.9l0,0c0-11.2,9.1-20.3,20.3-20.3h288.9C829.3,1422.3,838.4,1431.4,838.4,1442.6
			L838.4,1442.6z"/>
	</g>
	<path class="st20" d="M2099.3,465.3c-21.6,7-39.6,15.7-50.2,26.3c-47.4,47.5-138,41.4-138,41.4V329.3
		C1994.8,359.4,2061.4,408.6,2099.3,465.3z"/>
	<path class="st19" d="M1911,1380.6V329.3c-13.5-5-27.5-9.5-41.9-13.4c-11.8-3.2-23.8-6-36.1-8.5v1073.3v62h78h725.1
		c7.7-15.1,14.2-30.8,19.4-47.1c1.6-4.9,3.1-9.9,4.4-14.9H1911z"/>
</g>
</svg>
